<?xml version="1.0" standalone="no"?><!DOCTYPE svg PUBLIC "-//W3C//DTD SVG 1.1//EN" "http://www.w3.org/Graphics/SVG/1.1/DTD/svg11.dtd"><svg t="1731325051424" class="icon" viewBox="0 0 1024 1024" version="1.1" xmlns="http://www.w3.org/2000/svg" p-id="23128" xmlns:xlink="http://www.w3.org/1999/xlink" width="200" height="200"><path d="M588.8 51.2a25.6 25.6 0 0 1 25.6 25.6v25.6h128a76.8 76.8 0 0 1 76.8 76.8v768a76.8 76.8 0 0 1-76.8 76.8H332.8A76.8 76.8 0 0 1 256 947.2v-768a76.8 76.8 0 0 1 76.8-76.8h128v-25.6a25.6 25.6 0 0 1 25.6-25.6h102.4z m153.6 102.4H332.8a25.6 25.6 0 0 0-25.6 25.6v768a25.6 25.6 0 0 0 25.6 25.6h409.6a25.6 25.6 0 0 0 25.6-25.6v-768a25.6 25.6 0 0 0-25.6-25.6z m-25.6 665.6v102.4H358.4v-102.4h358.4z" p-id="23129" fill="#f4ea2a"></path></svg>