<?xml version="1.0" standalone="no"?><!DOCTYPE svg PUBLIC "-//W3C//DTD SVG 1.1//EN" "http://www.w3.org/Graphics/SVG/1.1/DTD/svg11.dtd"><svg t="1727328134255" class="icon" viewBox="0 0 1024 1024" version="1.1" xmlns="http://www.w3.org/2000/svg" p-id="6046" xmlns:xlink="http://www.w3.org/1999/xlink" width="200" height="200"><path d="M942.08 488.448v45.568h-59.904v32.768c0 9.216-3.584 13.824-11.264 13.824h-99.84c-7.68 0-11.776-4.608-11.776-13.824v-32.768h-44.544c0 7.168 1.536 59.904 0 168.448-0.512 37.376-10.752 125.44-140.8 125.952v29.184c0 9.216-3.584 13.824-11.264 13.824H339.968c-7.68 0-11.776-4.608-11.776-13.824v-29.184h-122.88v29.184c0 9.216-4.096 13.824-11.264 13.824h-38.4c-7.68 0-11.776-4.608-11.776-13.824v-29.184H83.456v-45.568h60.416v-33.28c0-9.216 4.096-13.824 11.776-13.824h38.4c7.68 0 11.264 4.608 11.264 13.824v33.28h122.88v-33.28c0-9.216 4.096-13.824 11.776-13.824h222.72c7.68 0 11.264 4.608 11.264 13.824v33.28h1.536c0.512 0 100.864 2.048 100.864-81.408v-167.424H573.44v31.232c0 9.216-4.096 13.824-11.776 13.824H339.456c-7.68 0-11.264-4.608-11.264-13.824v-31.232H205.824v32.256c0 9.216-4.096 13.824-11.264 13.824h-38.4c-7.68 0-11.776-4.608-11.776-13.824v-32.256H81.92v-45.568h62.464v-30.208c0-9.216 4.096-13.824 11.776-13.824H194.56c7.68 0 11.264 4.608 11.264 13.824v30.208H327.68v-31.232c0-9.216 4.096-13.824 11.264-13.824h222.72c7.68 0 11.776 4.608 11.776 13.824v31.232h103.424V322.56c0-83.456-100.352-81.408-100.864-81.408h-1.536v33.792c0 9.216-3.584 13.824-11.264 13.824H339.968c-7.68 0-11.776-4.608-11.776-13.824v-33.792h-122.88v33.792c0 9.216-4.096 13.824-11.264 13.824h-38.4c-7.68 0-11.776-4.608-11.776-13.824v-33.792H83.456v-45.568h60.416v-29.184c0-9.216 4.096-13.824 11.776-13.824h38.4c7.68 0 11.264 4.608 11.264 13.824v29.184h122.88v-29.184c0-9.216 4.096-13.824 11.776-13.824h222.72c7.68 0 11.264 4.608 11.264 13.824v29.184c130.56 0.512 140.288 88.576 140.8 125.952 1.536 93.184 0.512 147.968 0 166.912h44.032v-30.208c0-9.216 4.096-13.824 11.776-13.824H870.4c7.68 0 11.264 4.608 11.264 13.824v30.208H942.08z" p-id="6047"></path></svg>