<?xml version="1.0" standalone="no"?><!DOCTYPE svg PUBLIC "-//W3C//DTD SVG 1.1//EN" "http://www.w3.org/Graphics/SVG/1.1/DTD/svg11.dtd"><svg t="1733232383271" class="icon" viewBox="0 0 1105 1024" version="1.1" xmlns="http://www.w3.org/2000/svg" p-id="14683" xmlns:xlink="http://www.w3.org/1999/xlink" width="215.8203125" height="200"><path d="M1098.284883 103.022151a20.724899 20.724899 0 0 0-18.865318-13.66388h-72.038562L947.901352 18.262975a35.924955 35.924955 0 0 0-24.012854-12.585862 2511.620567 2511.620567 0 0 0-345.343112 0.539009 35.978855 35.978855 0 0 0-24.012854 12.585862l-61.770439 70.071179h-72.038563a20.751849 20.751849 0 0 0-18.865317 13.690831l-6.279456 23.500795a4.824131 4.824131 0 0 0 4.554627 5.390091l40.614333 17.517795-16.574529 18.595812a70.394585 70.394585 0 0 0-14.87665 47.567551v189.785094a14.795799 14.795799 0 0 0 14.87665 14.229839h110.901117a14.445443 14.445443 0 0 0 14.87665-14.229839v-37.191626h400.241185v37.191626a14.795799 14.795799 0 0 0 14.8497 14.229839h110.928067a14.445443 14.445443 0 0 0 14.87665-14.229839V215.136038a67.591737 67.591737 0 0 0-14.87665-47.567551l-16.574529-19.134822 40.587383-17.517794a5.390091 5.390091 0 0 0 4.581577-5.390091zM581.402134 239.741802a6.225555 6.225555 0 0 1-6.306406 6.036902l-98.908164-3.287956a26.950454 26.950454 0 0 1-26.303643-25.171723v-19.134822a8.354641 8.354641 0 0 1 9.729114-9.297907l98.908164 11.480893a24.255408 24.255408 0 0 1 22.880935 22.449728v16.924885z m-74.922261-102.81598c-6.279456 1.104969-6.845415-3.261005-4.554626-6.54896L576.739706 43.5425a17.706448 17.706448 0 0 1 11.992952-6.57591 2221.741489 2221.741489 0 0 1 324.779915 0 16.574529 16.574529 0 0 1 12.019902 6.57591l74.895311 86.969114c2.290789 3.287955 1.697879 7.087969-4.581577 6.54896a4297.627123 4297.627123 0 0 0-489.366336-0.134752z m546.636049 79.854194a26.438395 26.438395 0 0 1-26.303642 25.171723l-98.908165 3.261005a6.198604 6.198604 0 0 1-6.306406-6.009951v-16.951835a24.524913 24.524913 0 0 1 22.880935-22.422778l98.908165-10.941884a9.001451 9.001451 0 0 1 9.729113 8.758898v19.134822zM810.939147 546.303211l-50.774654-75.057013H295.403921l31.424229-52.095227H149.575017L88.451389 471.246198 17.113538 532.073372l-16.709281 14.229839h560.838938l7.357474 68.993161h-227.434878L873.194695 1024l211.884465-408.703628h-227.434877z" fill="#F18000" p-id="14684"></path></svg>