<?xml version="1.0" standalone="no"?><!DOCTYPE svg PUBLIC "-//W3C//DTD SVG 1.1//EN" "http://www.w3.org/Graphics/SVG/1.1/DTD/svg11.dtd"><svg t="1727271171404" class="icon" viewBox="0 0 1157 1024" version="1.1" xmlns="http://www.w3.org/2000/svg" p-id="1515" width="225.9765625" height="200" xmlns:xlink="http://www.w3.org/1999/xlink"><path d="M665.726186 887.403574H31.704251C14.195933 887.403574 0 901.599507 0 919.107825v63.408503c0 17.508318 14.195933 31.704251 31.704251 31.704251h634.021935c17.508318 0 31.704251-14.195933 31.704251-31.704251v-63.408503c0-17.508318-14.195933-31.704251-31.704251-31.704251zM1077.849908 253.381639V158.268885a31.704251 31.704251 0 0 0-63.408503 0v95.112754h-63.408503V158.268885a31.704251 31.704251 0 0 0-63.408503 0v95.112754h-31.704251c-17.508318 0-31.704251 14.195933-31.704252 31.704251v63.408503c0 70.853481 46.783487 130.160937 110.949107 150.445348v234.769193c0 27.63475-18.833272 53.345163-46.089464 57.824769a55.55342 55.55342 0 0 1-64.859643-54.701664v-55.490326a174.389156 174.389156 0 0 0-174.357609-174.357609h-15.867899V126.564633a126.817006 126.817006 0 0 0-126.817005-126.817005H190.162415a126.817006 126.817006 0 0 0-126.817005 126.817005V823.995071h570.613432v-221.898213h15.867899a79.244855 79.244855 0 0 1 79.244855 79.244855v48.770918c0 78.613925 57.288478 148.931115 135.555391 156.533826a150.729267 150.729267 0 0 0 165.619224-149.814418v-237.892298c64.165619-20.284412 110.949107-79.591867 110.949106-150.445348v-63.408503c0-17.508318-14.195933-31.704251-31.704251-31.704251h-31.704251z m-562.537524 94.639556l-185.651263 275.401109a24.574738 24.574738 0 0 1-20.56833 10.378805c-15.205422 0-26.688355-12.429328-23.123598-25.584227l45.616266-164.609735H213.980037c-14.353666 0-25.458041-11.072828-23.56525-23.565249l31.704252-211.992607c1.577326-10.315712 11.640665-18.044609 23.565249-18.044608h134.735182c15.615527 0 26.972274 12.965619 22.997412 26.18361l-22.997412 100.633395h114.324584c18.296981 0 29.748367 17.382132 20.56833 31.231054z" p-id="1516"></path></svg>