<?xml version="1.0" standalone="no"?><!DOCTYPE svg PUBLIC "-//W3C//DTD SVG 1.1//EN" "http://www.w3.org/Graphics/SVG/1.1/DTD/svg11.dtd"><svg t="1729756896428" class="icon" viewBox="0 0 1024 1024" version="1.1" xmlns="http://www.w3.org/2000/svg" p-id="7040" xmlns:xlink="http://www.w3.org/1999/xlink" width="200" height="200"><path d="M512 0C301.764527 0 129.947179 163.037583 128.882965 362.737337a354.316744 354.316744 0 0 0 70.424361 210.927212c1.064214 1.024306 1.064214 2.035309 2.128428 2.035309l1.064214 1.024306 293.483612 372.927186a19.79438 19.79438 0 0 0 32.019538 0L822.537641 574.675552a2.248152 2.248152 0 0 0 2.128428-2.035309 351.350247 351.350247 0 0 0 70.437663-209.902906C894.039518 163.037583 723.299687 0 512 0z m0 507.430531c-93.916884 0-169.675617-70.304636-169.675617-155.894046 0-86.613716 75.825247-155.894046 169.675617-155.894046s169.675617 69.28033 169.675617 155.894046c0 85.58941-75.825247 155.894046-169.675617 155.894046z" fill="#FFFFFF" p-id="7041"></path><path d="M216.081999 944.183951a287.337776 79.816049 0 1 0 574.675552 0 287.337776 79.816049 0 1 0-574.675552 0Z" fill="#F37778" opacity=".52" p-id="7042"></path><path d="M511.494498 957.792587a52.838224 52.838224 0 0 1-37.566753-17.293477l-0.984398-0.957792-269.911272-349.541084a19.954012 19.954012 0 0 1-3.990803-5.746756A362.577705 362.577705 0 0 1 128.882965 369.707939C128.882965 165.698118 300.913156 0 511.494498 0c211.579043 0 383.609234 166.65591 383.609234 370.665731a365.823558 365.823558 0 0 1-68.216116 211.685465 52.891435 52.891435 0 0 1-6.917391 8.620133L550.058953 938.636736l-0.984398 0.957792A47.34422 47.34422 0 0 1 511.494498 957.792587zM247.516219 552.646323l0.984398 0.957793 262.993881 340.029671 263.991582-340.987464c0.984398-0.957793 1.982099-1.915585 1.982099-2.873378a308.449121 308.449121 0 0 0 58.332229-179.107214c0-172.402666-145.331722-313.198176-324.292607-313.198176-177.976486 0-324.292607 139.837718-325.290307 313.198176A307.59775 307.59775 0 0 0 245.547423 550.730738c1.968796 1.024306 1.968796 1.915585 1.968796 1.915585z" fill="#454B54" p-id="7043"></path><path d="M512 383.117035m-223.484937 0a223.484937 223.484937 0 1 0 446.969874 0 223.484937 223.484937 0 1 0-446.969874 0Z" fill="#F37778" p-id="7044"></path></svg>