<?xml version="1.0" standalone="no"?><!DOCTYPE svg PUBLIC "-//W3C//DTD SVG 1.1//EN" "http://www.w3.org/Graphics/SVG/1.1/DTD/svg11.dtd"><svg t="1727326299674" class="icon" viewBox="0 0 1024 1024" version="1.1" xmlns="http://www.w3.org/2000/svg" p-id="12529" xmlns:xlink="http://www.w3.org/1999/xlink" width="200" height="200"><path d="M807.3125 633.2890625c-15.8203125 0-31.640625 5.2734375-47.4609375 10.546875L601.6484375 353.796875c26.3671875-26.3671875 47.4609375-58.0078125 47.4609375-100.1953125 0-73.828125-58.0078125-131.8359375-131.8359375-131.8359375S385.4375 185.046875 385.4375 253.6015625c0 31.640625 10.546875 63.28125 31.640625 89.6484375l-163.4765625 295.3125c-10.546875 0-21.09375-5.2734375-31.640625-5.2734375-73.828125 0-131.8359375 58.0078125-131.8359375 131.8359375s58.0078125 131.8359375 131.8359375 131.8359375c63.28125 0 116.015625-47.4609375 126.5625-110.7421875l326.953125 0c10.546875 63.28125 63.28125 110.7421875 126.5625 110.7421875 73.828125 0 131.8359375-58.0078125 131.8359375-131.8359375S881.140625 633.2890625 807.3125 633.2890625L807.3125 633.2890625zM464.5390625 374.890625c15.8203125 10.546875 36.9140625 10.546875 52.734375 10.546875 10.546875 0 26.3671875 0 36.9140625-5.2734375l163.4765625 290.0390625c-15.8203125 15.8203125-26.3671875 36.9140625-31.640625 63.28125L353.796875 733.484375c-5.2734375-31.640625-26.3671875-58.0078125-47.4609375-73.828125L464.5390625 374.890625 464.5390625 374.890625z" p-id="12530"></path></svg>