<?xml version="1.0" standalone="no"?><!DOCTYPE svg PUBLIC "-//W3C//DTD SVG 1.1//EN" "http://www.w3.org/Graphics/SVG/1.1/DTD/svg11.dtd"><svg t="1733232119179" class="icon" viewBox="0 0 1024 1024" version="1.1" xmlns="http://www.w3.org/2000/svg" p-id="9288" xmlns:xlink="http://www.w3.org/1999/xlink" width="200" height="200"><path d="M887.65131 1023.997442a27.030563 27.030563 0 0 1-27.371642-26.646848V960.045007H465.053617v37.262952a27.030563 27.030563 0 0 1-27.414277 26.646848H361.663847a27.030563 27.030563 0 0 1-27.371643-26.646848v-198.977344a100.106879 100.106879 0 0 1 4.050321-26.732118 319.463732 319.463732 0 0 0 14.026901-34.960665h-31.549868a18.162492 18.162492 0 0 1-15.13541-7.972737 26.518943 26.518943 0 0 1-2.899177-23.832941l9.379691-26.646848a42.080702 42.080702 0 0 1 36.708697-26.604213h31.592504c19.569445-54.743285 40.886924-106.203678 46.898452-117.587211a92.091507 92.091507 0 0 1 61.095893-36.324983l14.709061-4.263496a691.368461 691.368461 0 0 1 159.369469-10.957184 691.411096 691.411096 0 0 1 159.454738 10.957184l10.23239 2.643367c22.596527 5.542544 53.549506 13.259472 64.25088 36.964508 6.437878 14.36798 27.456912 63.653991 47.410072 118.738355h31.890948a42.208607 42.208607 0 0 1 36.751333 26.604213l9.37969 26.604213a26.476308 26.476308 0 0 1-2.899177 23.875576 18.162492 18.162492 0 0 1-15.135409 7.972737h-31.294059a338.137843 338.137843 0 0 0 14.325346 34.91803 98.444116 98.444116 0 0 1 4.007686 26.774753v199.062614a26.987928 26.987928 0 0 1-27.030563 26.433673z m-487.743907-212.79107v26.604213c0 17.906682 21.317478 26.646848 64.975674 26.646848h36.367618c25.836784 0 35.472284-6.096799 35.51492-22.468622 0-14.53852-17.693507-22.639162-36.410254-31.251424l-8.058006-3.709241a207.589605 207.589605 0 0 0-63.185007-22.425987c-13.728456 0-29.204945 0-29.204945 26.604213z m433.256432-4.263496l-8.015372 3.879781c-18.759381 8.526991-36.452888 16.712903-36.452888 31.208789 0 16.329188 9.6355 22.425987 35.472284 22.425987h36.324983c43.743466 0 65.018309-8.526991 65.01831-26.646848v-26.518943c0-24.68564-12.790487-26.646848-29.162311-26.646848a208.911289 208.911289 0 0 0-63.185006 22.383352z m-362.780848-241.569666c0 0.34108-0.25581 0.682159-0.42635 0.980604a109.529204 109.529204 0 0 1-5.2441 10.4882 419.954326 419.954326 0 0 0-39.3947 103.048691 886.807104 886.807104 0 0 0 237.348805 24.728275 879.857606 879.857606 0 0 0 236.837186-24.728275 497.379407 497.379407 0 0 0-38.584636-100.874308 184.140379 184.140379 0 0 1-7.930102-17.053983c-2.089113-5.030925-20.976399-30.10028-190.194543-30.10028-178.768374-0.08527-188.702319 24.387195-192.41156 33.596346z m-409.636666 157.749341a26.987928 26.987928 0 0 1-27.329008-26.646848v-199.105249a99.723164 99.723164 0 0 1 4.007686-26.774753 323.684593 323.684593 0 0 0 14.069536-34.960665H19.902032a18.162492 18.162492 0 0 1-15.30595-7.972737 26.604213 26.604213 0 0 1-2.856542-23.875575l9.550231-26.561579a42.080702 42.080702 0 0 1 36.708698-26.604213h31.635138c20.677954-57.983541 41.526448-107.354822 46.898452-117.587211a92.560491 92.560491 0 0 1 61.394338-36.367618c5.15883-1.449589 9.97658-2.899177 14.53852-4.263496a692.221161 692.221161 0 0 1 159.369469-10.914549 691.581636 691.581636 0 0 1 159.412104 10.914549c3.112352 0.852699 6.608418 1.748033 10.275025 2.600733 22.596527 5.585179 53.506871 13.259472 64.25088 37.007142 5.798354 12.790487 26.902658 62.076497 47.410072 118.78099h31.890948a42.123337 42.123337 0 0 1 36.751333 26.604213l9.37969 26.561578a26.774753 26.774753 0 0 1-2.899177 23.918211 18.162492 18.162492 0 0 1-15.092775 7.930102h-31.294058v0.34108l0.810064 2.131748h-2.771272a683.864709 683.864709 0 0 0-173.524275 13.259471c-4.689845 1.449589-8.910706 2.771272-12.790487 3.879781h-0.255809a131.145127 131.145127 0 0 0-87.657472 57.770367c-6.821593 12.790487-23.534496 53.506871-38.840446 94.308525h-0.682159a85.269914 85.269914 0 0 0-76.316573 51.758837H164.136091v37.262953a27.030563 27.030563 0 0 1-27.371642 26.646848z m38.371461-212.79107v26.604213c0 17.906682 21.317478 26.646848 65.018309 26.646848h36.154444c25.879419 0 35.472284-6.096799 35.472284-22.468622 0-14.53852-17.736142-22.639162-36.452888-31.251424a458.325787 458.325787 0 0 1-8.015372-3.666606A206.481096 206.481096 0 0 0 128.237457 483.641998c-13.771091 0-29.24758 0-29.24758 26.604213z m70.390314-245.833162l-0.42635 0.980604c-1.023239 2.558097-2.813907 5.840989-5.201465 10.360295a415.477655 415.477655 0 0 0-39.47997 103.176596 885.74123 885.74123 0 0 0 237.39144 24.77091 879.090177 879.090177 0 0 0 236.879821-24.77091 497.891027 497.891027 0 0 0-38.584636-100.703769 180.388503 180.388503 0 0 1-7.972737-17.053982c-2.089113-5.07356-20.891129-30.270819-190.279813-30.27082-178.683104 0-188.617049 24.301925-192.32629 33.511076z m786.359145 278.022554a1334.559421 1334.559421 0 0 0-15.391219-37.646667 120.230579 120.230579 0 0 0-89.78922-61.223798l-7.887467-2.046478a365.8932 365.8932 0 0 0-78.149876-10.360294 70.347679 70.347679 0 0 0 2.046478-50.650329l-9.038611-26.604213A82.072292 82.072292 0 0 0 682.491897 298.39311h-0.852699c-9.337056-25.580974-19.100461-51.161948-29.16231-75.719683h7.844832c5.542544 0 11.298264 0.34108 17.480332 0.341079a810.064181 810.064181 0 0 0 226.988511-24.77091 506.588558 506.588558 0 0 0-36.964508-100.661133c-3.453432-7.247943-6.182069-12.790487-7.674292-17.309792-2.046478-5.030925-20.379509-29.84447-182.264441-29.84447-171.179352 0-180.729582 24.42983-184.310919 33.638981 0 0.383715-0.25581 0.682159-0.426349 0.980604l-2.728638 7.503752c-4.263496 11.383533-10.999819 30.398724-19.10046 50.607694a1140.698272 1140.698272 0 0 0-49.54182-2.131748c7.120038-19.271001 13.728456-39.3947 19.057826-55.425444s9.507595-28.778596 11.554073-32.828917a87.913281 87.913281 0 0 1 58.580431-36.666063c4.90302-1.492223 9.55023-2.856542 13.941631-4.263495A636.795717 636.795717 0 0 1 677.674147 0.758476a636.582542 636.582542 0 0 1 152.718416 10.957184c2.941812 0.852699 6.224704 1.705398 9.678135 2.558097 21.743828 5.585179 51.503028 13.216837 61.778053 37.007143 5.499909 12.790487 25.580974 61.735418 45.448864 118.78099h30.526629a40.503209 40.503209 0 0 1 35.216474 26.646848l9.038611 26.561578a27.670087 27.670087 0 0 1-3.069717 24.387195 17.053983 17.053983 0 0 1-14.154805 7.461118h-29.84447a345.087341 345.087341 0 0 0 13.728456 34.960665 103.006056 103.006056 0 0 1 3.837146 26.732118v199.147883a26.433673 26.433673 0 0 1-26.220498 26.604213z m-114.815939-217.01193l-7.716927 3.751876c-17.991952 8.526991-34.875395 16.670268-34.875395 31.166153 0 16.329188 9.209151 22.425987 34.107966 22.425988h34.832759c41.952798 0 62.332307-8.526991 62.332308-26.646848v-26.604213c0-24.5151-12.321503-26.518943-27.243738-26.518944h-0.724794a193.733244 193.733244 0 0 0-60.712179 22.425988z" fill="#3DAEFF" p-id="9289"></path></svg>