<?xml version="1.0" standalone="no"?><!DOCTYPE svg PUBLIC "-//W3C//DTD SVG 1.1//EN" "http://www.w3.org/Graphics/SVG/1.1/DTD/svg11.dtd"><svg t="1729842662799" class="icon" viewBox="0 0 1024 1024" version="1.1" xmlns="http://www.w3.org/2000/svg" p-id="27473" xmlns:xlink="http://www.w3.org/1999/xlink" width="200" height="200"><path d="M403 332c50.66 0 96.456 20.812 129.31 54.35-60.52 79.112-67.5 186.094-20.952 271.636C481.156 680.606 443.64 694 403 694h-158c-29.272 0-53 23.728-53 53 0 28.98 23.256 52.524 52.124 52.992l0.876 0.008h393.818l60.376 60.454A32.352 32.352 0 0 0 699 864c0 17.674 14.326 32 32 32s32-14.326 32-32c0-1.198-0.066-2.38-0.194-3.544l25.316-25.35c4.4 8.68 6.878 18.498 6.878 28.894 0 35.346-28.654 64-64 64h-486C145.036 928 64 846.964 64 747S145.036 566 245 566h158c29.272 0 53-23.728 53-53 0-28.98-23.256-52.524-52.124-52.992L403 460h-158c-35.346 0-64-28.654-64-64a63.724 63.724 0 0 1 7.174-29.472l28.848 28.364c-0.014 0.368-0.022 0.738-0.022 1.108 0 15.464 12.536 28 28 28s28-12.536 28-28c0-0.37-0.008-0.74-0.02-1.106l51.276-50.42 1.18-1.21 1.264-1.336a113.62 113.62 0 0 0 8.232-9.928H403z m328 468c17.658 0 33.646 7.152 45.226 18.716l-22.612 22.642A31.9 31.9 0 0 0 731 832a31.9 31.9 0 0 0-22.614 9.36L667.084 800H731z m-185.234-398.27C569.726 432.428 584 471.048 584 513c0 51.97-21.902 98.822-56.98 131.834-40.1-76.922-33.85-171.766 18.746-243.104zM308.46 332l-43.742 44.12A27.912 27.912 0 0 0 245 368c-7.69 0-14.656 3.1-19.716 8.12L199.94 350.55c11.566-11.468 27.486-18.552 45.062-18.552h63.458z" fill="#49B3EB" p-id="27474"></path><path d="M188.174 366.528l9.052 8.902A51.83 51.83 0 0 0 193 396c0 28.432 22.818 51.534 51.14 51.994l0.86 0.006h158.098l0.972 0.008C439.52 448.584 468 477.502 468 513c0 35.54-28.522 64.418-63.926 64.992l-1.074 0.008h-158C151.664 578 76 653.664 76 747c0 92.402 74.16 167.484 166.206 168.978l2.794 0.022h486c28.72 0 52-23.28 52-52 0-7.026-1.394-13.726-3.92-19.84l9.04-9.054c4.4 8.68 6.88 18.498 6.88 28.894 0 35.346-28.654 64-64 64h-486C145.036 928 64 846.964 64 747S145.036 566 245 566h158c29.272 0 53-23.728 53-53 0-28.98-23.256-52.524-52.124-52.992L403 460h-158c-35.346 0-64-28.654-64-64a63.724 63.724 0 0 1 7.174-29.472zM731 800c17.658 0 33.646 7.152 45.226 18.716l-8.48 8.492a51.832 51.832 0 0 0-35.886-15.2l-0.86-0.008h-51.932l-11.984-12H731z m-225.202-152.856c1.76 3.65 3.612 7.264 5.56 10.842C481.156 680.606 443.64 694 403 694h-158c-29.272 0-53 23.728-53 53 0 28.98 23.256 52.524 52.124 52.992l0.876 0.008h393.818l11.984 12h-405.9l-0.972-0.008C208.48 811.416 180 782.498 180 747c0-35.54 28.522-64.418 63.926-64.992l1.074-0.008h158c38.268 0 73.564-12.72 101.894-34.16l0.904-0.696z m39.968-245.414C569.726 432.428 584 471.048 584 513c0 51.97-21.902 98.822-56.98 131.834a225.16 225.16 0 0 1-5.526-11.346C552.674 602.832 572 560.174 572 513c0-37.83-12.43-72.756-33.426-100.918a222.32 222.32 0 0 1 7.192-10.352zM403 332c50.66 0 96.456 20.812 129.31 54.35a242.804 242.804 0 0 0-7.172 9.854C494.38 364.036 451.028 344 403 344h-78.284l0.72-0.736 1.264-1.336a113.844 113.844 0 0 0 8.232-9.926L403 332z m-94.542 0l-11.9 12H245a51.834 51.834 0 0 0-36.612 15.074l-8.45-8.52c11.566-11.47 27.486-18.554 45.062-18.554h63.458z" fill="#0091D2" p-id="27475"></path><path d="M893.634 375.454c88.922 89.04 89.812 232.848 2.668 322.982l-2.668 2.716L731 864l-162.634-162.848c-89.82-89.94-89.82-235.76 0-325.698 89.82-89.94 235.448-89.94 325.268 0z m-101.822 101.734c-33.586-33.584-88.038-33.584-121.624 0-33.584 33.586-33.584 88.038 0 121.624 33.25 33.248 86.952 33.58 120.61 0.996l1.014-0.996c33.584-33.586 33.584-88.038 0-121.624z" fill="#FFC63E" p-id="27476"></path><path d="M893.634 375.454c88.922 89.04 89.812 232.848 2.668 322.982l-2.668 2.716L731 864l-162.634-162.848c-89.82-89.94-89.82-235.76 0-325.698 44.012-44.07 101.422-66.546 159.102-67.428L731 308c58.862 0 117.724 22.484 162.634 67.454z m-316.778 8.48c-84.29 84.4-85.132 220.724-2.528 306.164l2.528 2.574 154.144 154.346 154.076-154.278 2.6-2.644c82.698-85.538 81.66-221.86-2.532-306.162-85.134-85.246-223.154-85.246-308.288 0z" fill="#EF8600" p-id="27477"></path><path d="M332.68 130.88c47.942 48.684 48.42 127.314 1.44 176.596l-1.44 1.484L245 398l-87.68-89.04c-48.426-49.174-48.426-128.904 0-178.08a122.666 122.666 0 0 1 175.36 0z m-55.154 56.594c-17.964-17.966-47.088-17.966-65.052 0-17.966 17.964-17.966 47.088 0 65.052 17.784 17.786 46.508 17.964 64.51 0.534l0.542-0.534c17.966-17.964 17.966-47.088 0-65.052z" fill="#FFC63E" p-id="27478"></path><path d="M332.68 130.88c47.942 48.684 48.42 127.314 1.44 176.596l-1.44 1.484L245 398l-87.68-89.04c-48.426-49.174-48.426-128.904 0-178.08C181.046 106.788 212 94.498 243.094 94.016L245 94c31.734 0 63.468 12.294 87.68 36.88z m-166.81 8.42c-43.388 44.06-43.822 115.294-1.302 159.898l1.3 1.342 79.132 80.356 79.064-80.286 1.37-1.414c42.568-44.652 42.032-115.888-1.304-159.894a110.666 110.666 0 0 0-158.26 0z" fill="#EF8600" p-id="27479"></path><path d="M245 174c25.406 0 46 20.594 46 46s-20.594 46-46 46-46-20.594-46-46 20.594-46 46-46z m0 12c-18.778 0-34 15.222-34 34s15.222 34 34 34 34-15.222 34-34-15.222-34-34-34zM731 452c47.496 0 86 38.504 86 86s-38.504 86-86 86-86-38.504-86-86 38.504-86 86-86z m0 12c-40.87 0-74 33.13-74 74s33.13 74 74 74 74-33.13 74-74-33.13-74-74-74z" fill="#EF8600" p-id="27480"></path></svg>