<?xml version="1.0" standalone="no"?><!DOCTYPE svg PUBLIC "-//W3C//DTD SVG 1.1//EN" "http://www.w3.org/Graphics/SVG/1.1/DTD/svg11.dtd"><svg t="1733233710596" class="icon" viewBox="0 0 1024 1024" version="1.1" xmlns="http://www.w3.org/2000/svg" p-id="43913" xmlns:xlink="http://www.w3.org/1999/xlink" width="200" height="200"><path d="M160 64h704a96 96 0 0 1 96 96v704a96 96 0 0 1-96 96H160a96 96 0 0 1-96-96V160a96 96 0 0 1 96-96z" fill="#1FCBB8" p-id="43914"></path><path d="M512 673.408c-121.92-130.464-182.848-229.568-182.848-297.344C329.152 274.4 411.008 192 512 192c100.992 0 182.848 82.4 182.848 184.064 0 67.776-60.928 166.88-182.848 297.344z m0-226.56c38.848 0 70.336-31.68 70.336-70.784A70.56 70.56 0 0 0 512 305.28c-38.848 0-70.336 31.68-70.336 70.784 0 39.104 31.488 70.816 70.336 70.816z" fill="#FFFFFF" p-id="43915"></path><path d="M315.072 747.04A59.264 59.264 0 0 1 256 687.584c0-32.864 26.464-59.488 59.072-59.488h69.984a16.96 16.96 0 0 1 16.896 16.992 16.96 16.96 0 0 1-16.896 16.992H315.072a25.408 25.408 0 0 0-25.312 25.504c0 14.08 11.328 25.472 25.312 25.472h393.856c32.64 0 59.072 26.624 59.072 59.488A59.264 59.264 0 0 1 708.928 832h-301.376a16.96 16.96 0 0 1-16.896-16.992 16.96 16.96 0 0 1 16.896-16.96h301.376a25.408 25.408 0 0 0 25.312-25.504 25.408 25.408 0 0 0-25.312-25.504H315.072z" fill="#FFFFFF" p-id="43916"></path></svg>