<?xml version="1.0" standalone="no"?><!DOCTYPE svg PUBLIC "-//W3C//DTD SVG 1.1//EN" "http://www.w3.org/Graphics/SVG/1.1/DTD/svg11.dtd"><svg t="1729842672421" class="icon" viewBox="0 0 1024 1024" version="1.1" xmlns="http://www.w3.org/2000/svg" p-id="27628" xmlns:xlink="http://www.w3.org/1999/xlink" width="200" height="200"><path d="M938.666667 512c0 235.648-191.018667 426.666667-426.666667 426.666667S85.333333 747.648 85.333333 512 276.352 85.333333 512 85.333333s426.666667 191.018667 426.666667 426.666667z" fill="#F2F2F2" p-id="27629"></path><path d="M938.666667 512c0 235.648-191.018667 426.666667-426.666667 426.666667S85.333333 747.648 85.333333 512 276.352 85.333333 512 85.333333s426.666667 191.018667 426.666667 426.666667z" fill="#FFFFFF" p-id="27630"></path><path d="M263.466667 165.12L322.56 220.842667a85.333333 85.333333 0 0 1 3.498667 120.618666L92.288 589.226667A429.141333 429.141333 0 0 1 85.333333 512a426.112 426.112 0 0 1 178.133334-346.88z" fill="#E8D2E6" p-id="27631"></path><path d="M144.512 728.917333l266.794667-282.88a85.333333 85.333333 0 0 1 120.618666-3.498666l330.965334 312.234666A426.197333 426.197333 0 0 1 512 938.666667a426.453333 426.453333 0 0 1-367.488-209.749334z" fill="#F1D794" p-id="27632"></path><path d="M938.666667 513.28l-26.325334 27.861333a42.666667 42.666667 0 0 1-60.288 1.792L386.773333 104.021333A426.581333 426.581333 0 0 1 512 85.333333c235.648 0 426.666667 191.018667 426.666667 426.666667v1.28z" fill="#C4EDEB" p-id="27633"></path><path d="M341.333333 746.666667a170.666667 64 0 1 0 341.333334 0 170.666667 64 0 1 0-341.333334 0Z" fill="#E4B741" p-id="27634"></path><path d="M666.24 347.904l-9.898667-9.898667a208.213333 208.213333 0 0 0-293.845333 0l-9.898667 9.898667a184.576 184.576 0 0 0 0 260.821333l124.501334 124.501334c8.96 8.96 20.522667 13.44 32.341333 13.44 11.776 0 23.338667-4.48 32.298667-13.44l124.501333-124.501334a184.618667 184.618667 0 0 0 0-260.821333z" fill="#F13E3E" p-id="27635"></path><path d="M597.333333 469.333333a85.333333 85.333333 0 1 1-170.666666 0 85.333333 85.333333 0 0 1 170.666666 0z" fill="#FFFFFF" p-id="27636"></path></svg>