<?xml version="1.0" standalone="no"?><!DOCTYPE svg PUBLIC "-//W3C//DTD SVG 1.1//EN" "http://www.w3.org/Graphics/SVG/1.1/DTD/svg11.dtd"><svg t="1733233452716" class="icon" viewBox="0 0 1024 1024" version="1.1" xmlns="http://www.w3.org/2000/svg" p-id="20961" xmlns:xlink="http://www.w3.org/1999/xlink" width="200" height="200"><path d="M1024 424.96l-28.330667 28.330667L542.037333 0h-19.456l121.856 121.856-215.722666 215.722667L91.477333 0h-19.456l347.136 347.136-225.962666 225.962667L0 379.562667v19.456l183.637333 183.637333L0 766.293333v19.456l193.536-193.536 209.92 209.92-221.866667 221.866667h19.114667l212.309333-212.309333 111.957334 111.957333-100.010667 100.352h19.456l90.453333-90.453333 90.453334 90.453333h19.456l-100.010667-100.010667 225.962667-225.962666 253.610666 253.610666v-19.114666l-244.053333-244.053334 215.722667-215.722666 28.330666 28.330666v-19.456l-18.773333-18.773333 18.773333-18.773333v-19.114667z m0-95.573333L694.613333 0h-19.456L1024 348.842667v-19.456zM203.093333 582.656l225.962667-225.962667 209.92 209.92-225.962667 225.962667-209.92-209.92z m331.776 331.434667L422.570667 802.133333l225.962666-225.962666 111.957334 111.957333-225.621334 225.962667z m235.52-235.52l-331.776-331.776 215.722667-215.722667 331.776 331.776-215.722667 215.722667z" fill="#1E3242" p-id="20962"></path><path d="M498.005333 389.802667m-58.709333 0a58.709333 58.709333 0 1 0 117.418667 0 58.709333 58.709333 0 1 0-117.418667 0Z" fill="#0676EB" p-id="20963"></path><path d="M866.645333 114.346667m-58.709333 0a58.709333 58.709333 0 1 0 117.418667 0 58.709333 58.709333 0 1 0-117.418667 0Z" fill="#0676EB" p-id="20964"></path><path d="M198.997333 260.437333m-58.709333 0a58.709333 58.709333 0 1 0 117.418667 0 58.709333 58.709333 0 1 0-117.418667 0Z" fill="#0676EB" p-id="20965"></path><path d="M270.336 615.082667m-58.709333 0a58.709333 58.709333 0 1 0 117.418666 0 58.709333 58.709333 0 1 0-117.418666 0Z" fill="#0676EB" p-id="20966"></path><path d="M523.264 570.709333m-58.709333 0a58.709333 58.709333 0 1 0 117.418666 0 58.709333 58.709333 0 1 0-117.418666 0Z" fill="#0676EB" p-id="20967"></path><path d="M763.562667 497.664m-58.709334 0a58.709333 58.709333 0 1 0 117.418667 0 58.709333 58.709333 0 1 0-117.418667 0Z" fill="#0676EB" p-id="20968"></path><path d="M807.936 786.773333m-58.709333 0a58.709333 58.709333 0 1 0 117.418666 0 58.709333 58.709333 0 1 0-117.418666 0Z" fill="#0676EB" p-id="20969"></path><path d="M414.378667 868.010667m-58.709334 0a58.709333 58.709333 0 1 0 117.418667 0 58.709333 58.709333 0 1 0-117.418667 0Z" fill="#0676EB" p-id="20970"></path><path d="M58.709333 1024H0v-58.709333c32.426667 0 58.709333 26.282667 58.709333 58.709333z" fill="#0676EB" p-id="20971"></path></svg>