<?xml version="1.0" standalone="no"?><!DOCTYPE svg PUBLIC "-//W3C//DTD SVG 1.1//EN" "http://www.w3.org/Graphics/SVG/1.1/DTD/svg11.dtd"><svg t="1729843353556" class="icon" viewBox="0 0 1024 1024" version="1.1" xmlns="http://www.w3.org/2000/svg" p-id="58475" xmlns:xlink="http://www.w3.org/1999/xlink" width="200" height="200"><path d="M95.232 111.616h832.512v102.4H95.232z" fill="#919DA8" p-id="58476"></path><path d="M162.816 214.016h118.784V942.08H162.816z" fill="#C7E2EB" p-id="58477"></path><path d="M422.912 897.024h332.8v46.08H422.912z" fill="#919DA8" p-id="58478"></path><path d="M468.992 375.808h239.616v520.192H468.992zM757.76 458.752h44.032v101.376H757.76z" fill="#E07A63" p-id="58479"></path><path d="M512 497.664h152.576v62.464H512z" fill="#C7E2EB" p-id="58480"></path><path d="M640 507.904c6.144 0 10.24-5.12 10.24-10.24 0-6.144-5.12-10.24-10.24-10.24H513.024c-6.144 0-10.24 5.12-10.24 10.24v62.464c0 6.144 5.12 10.24 10.24 10.24H665.6c6.144 0 10.24-5.12 10.24-10.24v-62.464c0-6.144-5.12-10.24-10.24-10.24-6.144 0-10.24 5.12-10.24 10.24v52.224H523.264v-40.96h116.736z" fill="#1F384A" p-id="58481"></path><path d="M801.792 447.488h-14.336v-28.672c0-2.048 0-3.072-1.024-4.096l-15.36-31.744c-2.048-5.12-9.216-7.168-14.336-5.12-5.12 2.048-7.168 9.216-5.12 14.336l14.336 28.672v26.624H757.76c-6.144 0-10.24 5.12-10.24 10.24v69.632c0 6.144 5.12 10.24 10.24 10.24 6.144 0 10.24-5.12 10.24-10.24v-59.392h23.552v79.872h-71.68V375.808c0-6.144-5.12-10.24-10.24-10.24H468.992c-6.144 0-10.24 5.12-10.24 10.24v520.192c0 6.144 5.12 10.24 10.24 10.24h275.456V931.84H433.152v-24.576h3.072c6.144 0 10.24-5.12 10.24-10.24 0-6.144-5.12-10.24-10.24-10.24h-13.312c-6.144 0-10.24 5.12-10.24 10.24v46.08c0 6.144 5.12 10.24 10.24 10.24h332.8c6.144 0 10.24-5.12 10.24-10.24v-46.08c0-6.144-5.12-10.24-10.24-10.24H480.256V387.072h218.112v474.112c0 6.144 5.12 10.24 10.24 10.24 6.144 0 10.24-5.12 10.24-10.24v-27.648h19.456c28.672 0 51.2-23.552 51.2-51.2V570.368h11.264c6.144 0 10.24-5.12 10.24-10.24v-101.376c0-3.072-1.024-5.12-3.072-7.168-1.024-2.048-3.072-4.096-6.144-4.096z m-32.768 333.824c0 16.384-13.312 30.72-30.72 30.72h-19.456V570.368H768v210.944z" fill="#1F384A" p-id="58482"></path><path d="M928.768 101.376H95.232c-6.144 0-10.24 5.12-10.24 10.24v102.4c0 6.144 5.12 10.24 10.24 10.24h56.32V942.08c0 6.144 5.12 10.24 10.24 10.24h118.784c6.144 0 10.24-5.12 10.24-10.24V224.256h635.904c6.144 0 10.24-5.12 10.24-10.24v-102.4c2.048-5.12-3.072-10.24-8.192-10.24zM271.36 931.84h-98.304V224.256h98.304V931.84z m646.144-728.064H106.496V122.88h812.032v80.896z" fill="#1F384A" p-id="58483"></path></svg>