<?xml version="1.0" standalone="no"?><!DOCTYPE svg PUBLIC "-//W3C//DTD SVG 1.1//EN" "http://www.w3.org/Graphics/SVG/1.1/DTD/svg11.dtd"><svg t="1729840470932" class="icon" viewBox="0 0 1024 1024" version="1.1" xmlns="http://www.w3.org/2000/svg" p-id="19934" xmlns:xlink="http://www.w3.org/1999/xlink" width="200" height="200"><path d="M349.013333 387.015111A163.043556 163.043556 0 0 1 512 223.857778a163.043556 163.043556 0 0 1 162.986667 163.128889H349.013333z" fill="#FFC700" p-id="19935"></path><path d="M512 210.545778c-97.905778 0-176.981333 79.160889-176.981333 176.469333 0 7.367111 6.257778 13.312 13.994666 13.312h325.973334c7.736889 0 13.994667-5.973333 13.994666-13.312 0-97.308444-79.075556-176.469333-176.981333-176.469333z m5.973333 26.794666c73.415111 2.901333 133.376 59.306667 141.937778 131.754667l0.455111 4.551111H363.605333l0.483556-4.551111c8.817778-74.410667 71.793778-131.896889 147.911111-131.896889l5.973333 0.142222zM730.510222 166.627556a13.880889 13.880889 0 0 1 2.446222 17.464888l-1.479111 1.877334-43.804444 46.193778a13.653333 13.653333 0 0 1-19.342222 0 13.880889 13.880889 0 0 1-2.446223-17.436445l1.507556-1.877333 43.804444-46.193778a13.653333 13.653333 0 0 1 19.342223 0zM293.489778 166.627556a13.880889 13.880889 0 0 0-2.446222 17.464888l1.479111 1.877334 43.804444 46.193778a13.653333 13.653333 0 0 0 19.342222 0 13.880889 13.880889 0 0 0 2.446223-17.436445l-1.507556-1.877333-43.804444-46.193778a13.653333 13.653333 0 0 0-19.342223 0zM825.514667 370.688c0 6.997333-4.721778 12.8-10.951111 13.994667l-2.389334 0.227555H750.08c-7.367111 0-13.340444-6.371556-13.340444-14.222222 0-6.968889 4.721778-12.8 10.951111-13.994667l2.389333-0.227555h62.065778c7.367111 0 13.340444 6.371556 13.340444 14.222222zM303.957333 370.688c0 6.997333-4.721778 12.8-10.951111 13.994667l-2.389333 0.227555H228.551111c-7.367111 0-13.340444-6.371556-13.340444-14.222222 0-6.968889 4.721778-12.8 10.951111-13.994667l2.389333-0.227555h62.065778c7.367111 0 13.340444 6.371556 13.340444 14.222222zM512.227556 85.333333c6.968889 0 12.8 4.721778 13.994666 10.922667l0.227556 2.417778v63.061333c0 7.395556-6.371556 13.368889-14.222222 13.368889a13.994667 13.994667 0 0 1-13.994667-10.951111l-0.227556-2.417778V98.702222c0-7.395556 6.343111-13.340444 14.222223-13.340444z" fill="#2480FF" p-id="19936"></path><path d="M764.615111 737.735111h65.194667v130.503111h-65.194667z" fill="#D7EBFF" p-id="19937"></path><path d="M829.809778 724.394667h-65.194667a13.681778 13.681778 0 0 0-13.994667 13.340444v130.503111c0 7.367111 6.257778 13.340444 13.994667 13.340445h65.194667c7.736889 0 14.023111-5.973333 14.023111-13.340445v-130.503111a13.681778 13.681778 0 0 0-14.023111-13.340444z m-13.994667 26.680889v103.822222h-37.176889v-103.822222h37.176889z" fill="#2480FF" p-id="19938"></path><path d="M605.127111 493.027556h273.976889a28.444444 28.444444 0 0 1 27.648 21.816888l45.056 187.818667a28.444444 28.444444 0 0 1-27.676444 35.072h-273.976889a28.444444 28.444444 0 0 1-27.676445-21.816889l-45.027555-187.790222a28.444444 28.444444 0 0 1 27.676444-35.100444z" fill="#D7EBFF" p-id="19939"></path><path d="M686.506667 493.027556l108.515555 0.938666 18.488889 81.095111h110.165333l17.692445 83.825778h-106.666667l15.985778 78.848-111.729778 3.328-18.261333-82.204444h109.112889l-21.333334-83.797334-108.117333 3.299556z" fill="#FFFFFF" p-id="19940"></path><path d="M808.675556 491.064889l55.694222 238.250667-27.335111 5.802666-55.694223-238.250666z" fill="#2480FF" p-id="19941"></path><path d="M915.655111 561.720889v28.444444H595.484444v-28.444444zM941.368889 645.546667v28.444444H614.314667v-28.444444z" fill="#2480FF" p-id="19942"></path><path d="M715.719111 835.612444h162.986667v48.924445h-162.986667z" fill="#D7EBFF" p-id="19943"></path><path d="M878.705778 822.272h-162.986667a13.681778 13.681778 0 0 0-13.994667 13.340444v48.924445c0 7.395556 6.257778 13.368889 13.994667 13.368889h162.986667c7.736889 0 14.023111-5.973333 14.023111-13.368889v-48.924445a13.681778 13.681778 0 0 0-14.023111-13.340444z m-14.023111 26.652444v22.272h-134.968889v-22.272H864.711111zM879.217778 479.715556h-275.057778c-3.128889 0-6.257778 0.341333-9.329778 0.995555-22.641778 4.920889-36.778667 26.368-31.630222 47.900445l45.880889 191.345777c4.380444 18.204444 21.361778 31.118222 40.96 31.118223h275.057778c3.128889 0 6.257778-0.341333 9.329777-1.024 22.641778-4.892444 36.778667-26.339556 31.630223-47.872l-45.909334-191.374223c-4.352-18.204444-21.333333-31.089778-40.96-31.089777z m-275.057778 26.652444h275.057778c6.513778 0 12.174222 4.295111 13.653333 10.382222l45.852445 191.345778a13.340444 13.340444 0 0 1-10.524445 15.957333 14.677333 14.677333 0 0 1-3.128889 0.341334h-275.000889a13.880889 13.880889 0 0 1-13.653333-10.353778l-45.909333-191.374222a13.340444 13.340444 0 0 1 10.524444-15.957334 14.677333 14.677333 0 0 1 3.128889-0.341333z" fill="#2480FF" p-id="19944"></path><path d="M259.356444 737.735111H194.161778v130.503111h65.194666z" fill="#D7EBFF" p-id="19945"></path><path d="M194.190222 724.394667h65.194667c7.736889 0 13.994667 5.973333 13.994667 13.340444v130.503111c0 7.367111-6.257778 13.340444-13.994667 13.340445H194.190222a13.681778 13.681778 0 0 1-14.023111-13.340445v-130.503111c0-7.367111 6.257778-13.340444 14.023111-13.340444z m14.023111 26.680889v103.822222h37.176889v-103.822222H208.213333z" fill="#2480FF" p-id="19946"></path><path d="M418.872889 493.027556H144.896a28.444444 28.444444 0 0 0-27.648 21.816888l-45.056 187.818667a28.444444 28.444444 0 0 0 27.676444 35.072h273.976889a28.444444 28.444444 0 0 0 27.676445-21.816889l45.027555-187.790222a28.444444 28.444444 0 0 0-27.676444-35.100444z" fill="#D7EBFF" p-id="19947"></path><path d="M337.493333 493.027556l-108.515555 0.938666-18.488889 81.095111H100.323556l-17.692445 83.825778h106.666667l-15.985778 78.848 111.729778 3.328 18.261333-82.204444H194.190222l21.333334-83.797334 108.117333 3.299556z" fill="#FFFFFF" p-id="19948"></path><path d="M215.324444 491.064889L159.630222 729.315556l27.335111 5.802666 55.694223-238.250666z" fill="#2480FF" p-id="19949"></path><path d="M108.344889 561.720889v28.444444h320.170667v-28.444444zM82.631111 645.546667v28.444444h327.054222v-28.444444z" fill="#2480FF" p-id="19950"></path><path d="M308.280889 835.612444h-162.986667v48.924445h162.986667z" fill="#D7EBFF" p-id="19951"></path><path d="M145.294222 822.272h162.986667c7.736889 0 13.994667 5.973333 13.994667 13.340444v48.924445c0 7.395556-6.257778 13.368889-13.994667 13.368889h-162.986667a13.681778 13.681778 0 0 1-14.023111-13.368889v-48.924445c0-7.367111 6.257778-13.340444 14.023111-13.340444z m13.994667 26.652444v22.272h134.968889v-22.272H159.288889zM144.782222 479.715556h275.057778c3.128889 0 6.257778 0.341333 9.329778 0.995555 22.641778 4.920889 36.778667 26.368 31.630222 47.900445l-45.880889 191.345777c-4.380444 18.204444-21.361778 31.118222-40.96 31.118223h-275.057778c-3.128889 0-6.257778-0.341333-9.329777-1.024-22.641778-4.892444-36.778667-26.339556-31.630223-47.872l45.909334-191.374223c4.352-18.204444 21.333333-31.089778 40.96-31.089777z m275.057778 26.652444H144.782222a13.880889 13.880889 0 0 0-13.653333 10.382222l-45.852445 191.345778a13.340444 13.340444 0 0 0 10.524445 15.957333 14.677333 14.677333 0 0 0 3.128889 0.341334h275.000889c6.542222 0 12.231111-4.295111 13.653333-10.353778l45.909333-191.374222a13.340444 13.340444 0 0 0-10.524444-15.957334 14.677333 14.677333 0 0 0-3.128889-0.341333z" fill="#2480FF" p-id="19952"></path><path d="M479.402667 737.735111h65.194666v181.333333h-65.194666z" fill="#D7EBFF" p-id="19953"></path><path d="M544.597333 724.394667h-65.194666a13.681778 13.681778 0 0 0-13.994667 13.340444v181.333333c0 7.367111 6.257778 13.340444 13.994667 13.340445h65.194666c7.736889 0 13.994667-5.973333 13.994667-13.340445v-181.333333a13.681778 13.681778 0 0 0-13.994667-13.340444z m-14.023111 26.680889v154.652444h-37.176889v-154.652444h37.176889z" fill="#2480FF" p-id="19954"></path><path d="M373.105778 460.401778h277.788444a28.444444 28.444444 0 0 1 27.761778 22.186666l61.525333 271.445334H283.818667l61.525333-271.473778a28.444444 28.444444 0 0 1 27.761778-22.158222z" fill="#D7EBFF" p-id="19955"></path><path d="M554.467556 460.401778l13.937777 92.017778 131.015111-5.575112 16.298667 102.144h-141.937778l8.533334 108.942223-151.523556-3.896889 13.937778-105.045334h-136.448l20.992-96.568888h119.296l10.069333-92.017778h95.829334z m7.879111 92.017778h-113.777778l-3.868445 96.568888 128.796445-4.437333-11.150222-92.131555z" fill="#FFFFFF" p-id="19956"></path><path d="M444.700444 459.576889l27.875556 2.446222-27.875556 287.744-27.875555-2.446222zM568.405333 459.576889l-27.875555 2.446222 27.875555 287.744 27.875556-2.446222z" fill="#2480FF" p-id="19957"></path><path d="M692.195556 539.079111v28.444445H324.551111v-28.444445zM711.025778 635.676444v28.444445H296.675556v-28.444445zM351.203556 846.734222c6.883556 0 12.600889 4.721778 13.767111 10.951111l0.227555 2.389334v27.448889h290.531556l0.028444-27.448889c0-6.542222 4.949333-11.975111 11.491556-13.112889l2.503111-0.227556h45.966222c7.736889 0 14.023111 5.973333 14.023111 13.368889 0 6.542222-4.949333 11.946667-11.491555 13.084445l-2.531556 0.227555h-31.971555v27.448889c0 6.542222-4.920889 12.003556-11.463112 13.112889l-2.531555 0.227555h-318.577778a13.852444 13.852444 0 0 1-13.767111-10.951111l-0.227556-2.389333v-27.448889h-28.899555a13.852444 13.852444 0 0 1-13.795556-10.922667l-0.227555-2.417777c0-6.542222 4.949333-11.975111 11.491555-13.112889l2.531556-0.227556h42.922667z" fill="#2480FF" p-id="19958"></path><path d="M397.909333 876.373333h228.181334v48.952889h-228.181334z" fill="#D7EBFF" p-id="19959"></path><path d="M626.090667 863.061333h-228.181334a13.681778 13.681778 0 0 0-13.994666 13.340445v48.924444c0 7.395556 6.257778 13.340444 13.994666 13.340445h228.181334c7.736889 0 13.994667-5.973333 13.994666-13.340445v-48.924444a13.681778 13.681778 0 0 0-13.994666-13.340445z m-14.023111 26.652445v22.300444H411.875556v-22.300444h200.163555zM651.008 447.089778h-278.016c-19.797333 0-36.892444 13.141333-41.073778 31.573333L270.136889 751.217778c-1.877333 8.305778 4.750222 16.128 13.681778 16.128h456.362666c8.931556 0 15.559111-7.822222 13.681778-16.128l-61.781333-272.611556c-4.181333-18.403556-21.276444-31.573333-41.073778-31.573333z m0 26.652444l2.417778 0.199111a13.738667 13.738667 0 0 1 11.292444 10.325334l58.083556 256.426666H301.169778l58.112-256.426666a13.852444 13.852444 0 0 1 13.710222-10.524445h278.016z" fill="#2480FF" p-id="19960"></path></svg>