<?xml version="1.0" standalone="no"?><!DOCTYPE svg PUBLIC "-//W3C//DTD SVG 1.1//EN" "http://www.w3.org/Graphics/SVG/1.1/DTD/svg11.dtd"><svg t="1729842917008" class="icon" viewBox="0 0 1024 1024" version="1.1" xmlns="http://www.w3.org/2000/svg" p-id="42614" xmlns:xlink="http://www.w3.org/1999/xlink" width="200" height="200"><path d="M724.3 348.5c0 8.3 6.7 15 15 15h102.9c8.3 0 15-6.7 15-15s-6.7-15-15-15H739.3c-8.3 0-15 6.7-15 15zM829.2 393.7h-76.9c-8.3 0-15 6.7-15 15s6.7 15 15 15h76.9c8.3 0 15-6.7 15-15s-6.8-15-15-15z" fill="#606060" p-id="42615"></path><path d="M902.5 878.6H725.4L662 462.1c0-1.5-0.2-3-0.7-4.5l-40.8-268.3 156.4 23V294c0 8.3 6.7 15 15 15s15-6.7 15-15v-94.8c0-7.4-5.5-13.8-12.8-14.8L208 98.4c-4.3-0.6-8.7 0.6-12 3.5s-5.2 7-5.2 11.4v134.5c0 8.3 6.7 15 15 15s15-6.7 15-15V130.6l151.6 22.3L268 878.6H113.3c-8.3 0-15 6.7-15 15s6.7 15 15 15h789.2c8.3 0 15-6.7 15-15s-6.7-15-15-15zM657.6 632.5L398.6 477h235.3l23.7 155.5z m-31.1-204.1l-205.6-151h182.6l23 151z m-224.9-268l188.8 30.2 8.6 56.8H389.1l12.5-87zM383.4 287l217.9 160h-241l23.1-160z m-28.6 198.7l266.7 160.1H331.7l23.1-160.1z m-56.5 392.9l29.2-202.7h336.8l30.9 202.7H298.3z" fill="#606060" p-id="42616"></path><path d="M156.6 317.7h102.9c8.3 0 15-6.7 15-15s-6.7-15-15-15H156.6c-8.3 0-15 6.7-15 15s6.7 15 15 15zM246.5 347.9h-76.9c-8.3 0-15 6.7-15 15s6.7 15 15 15h76.9c8.3 0 15-6.7 15-15s-6.8-15-15-15z" fill="#606060" p-id="42617"></path><path d="M752.3 768.1m-160.2 0a160.2 160.2 0 1 0 320.4 0 160.2 160.2 0 1 0-320.4 0Z" fill="#FFA504" p-id="42618"></path><path d="M811.8 762h-59.5v-78.6l-59.5 90.8h59.5v78.6z" fill="#FFFFFF" p-id="42619"></path></svg>