<?xml version="1.0" standalone="no"?><!DOCTYPE svg PUBLIC "-//W3C//DTD SVG 1.1//EN" "http://www.w3.org/Graphics/SVG/1.1/DTD/svg11.dtd"><svg t="1727326674662" class="icon" viewBox="0 0 1024 1024" version="1.1" xmlns="http://www.w3.org/2000/svg" p-id="19093" xmlns:xlink="http://www.w3.org/1999/xlink" width="200" height="200"><path d="M929.28 501.76L791.04 204.8c-5.12-10.24-25.6-20.48-46.08-20.48H261.12c-20.48 0-40.96 7.68-46.08 20.48L76.8 501.76c-12.8 25.6 2.56 51.2 35.84 51.2h780.8c33.28 0 48.64-23.04 35.84-51.2z m-199.68 0H120.32l40.96-97.28L243.2 204.8l517.12-2.56 79.36 189.44 46.08 110.08h-156.16z m0 0" fill="#4C5161" p-id="19094"></path><path d="M949.76 581.12c0-2.56-5.12-7.68-12.8-7.68H844.8l23.04-112.64c0-7.68 0-12.8-5.12-15.36-2.56-2.56-7.68-5.12-12.8-5.12s-10.24 2.56-12.8 2.56l-2.56 2.56-176.64 199.68c-2.56 2.56-5.12 10.24-2.56 15.36 2.56 2.56 5.12 7.68 15.36 7.68H755.2L709.12 793.6v2.56c0 2.56 0 7.68 5.12 12.8 2.56 2.56 7.68 5.12 12.8 5.12 2.56 0 5.12 0 10.24-2.56 2.56 0 2.56-2.56 5.12-2.56l207.36-207.36v-2.56c0-5.12 5.12-10.24 0-17.92z" fill="#4C5161" p-id="19095"></path><path d="M488.96 194.56h-117.76l-12.8 69.12h128zM486.4 371.2V281.6h-130.56l-17.92 89.6zM796.16 263.68L768 194.56h-117.76l17.92 69.12zM514.56 371.2h148.48l-17.92-89.6h-130.56zM348.16 194.56H232.96l-5.12 10.24-23.04 58.88h128zM642.56 263.68l-15.36-69.12H512v69.12zM801.28 281.6h-130.56l20.48 89.6h145.92zM104.96 514.56h171.52l28.16-120.32H153.6zM847.36 394.24h-151.04l23.04 138.24zM688.64 514.56l-23.04-120.32h-151.04l2.56 122.88h-33.28l2.56-122.88h-151.04l-23.04 122.88h135.68l-28.16 273.92h-58.88c-15.36 0-25.6 10.24-25.6 25.6s10.24 25.6 25.6 25.6h281.6c15.36 0 25.6-10.24 25.6-25.6s-10.24-25.6-25.6-25.6h-56.32l-28.16-273.92h130.56zM197.12 281.6l-35.84 89.6h148.48l20.48-89.6z" fill="#4C5161" p-id="19096"></path></svg>