<?xml version="1.0" standalone="no"?><!DOCTYPE svg PUBLIC "-//W3C//DTD SVG 1.1//EN" "http://www.w3.org/Graphics/SVG/1.1/DTD/svg11.dtd"><svg t="1727326615861" class="icon" viewBox="0 0 1024 1024" version="1.1" xmlns="http://www.w3.org/2000/svg" p-id="16303" xmlns:xlink="http://www.w3.org/1999/xlink" width="200" height="200"><path d="M452.2 158.7V67.6c-38.5 5.3-76 15.6-112.1 30.8-52.9 22.4-100.4 54.4-141.2 95.2-40.8 40.8-72.8 88.3-95.2 141.2-16 38.2-26.7 78.1-31.6 119.1H163c22.9-150 140.2-269.3 289.2-295.2zM863.2 453.9H954c-4.9-41-15.5-80.9-31.7-119.2-22.4-52.9-54.4-100.4-95.2-141.2-40.8-40.8-88.3-72.8-141.2-95.2-38.3-16.2-78.1-26.8-119.2-31.7v90.9c152.5 23.3 273.2 144.1 296.5 296.4zM164.1 568.5H73c5.3 38.5 15.6 76 30.8 112.1 22.4 52.9 54.4 100.4 95.2 141.2 40.8 40.8 88.3 72.8 141.2 95.2 36.1 15.3 73.6 25.5 112.1 30.8v-91.1c-146.7-25.6-262.7-141.6-288.2-288.2zM566.8 857.7v90.9c41-4.9 80.9-15.5 119.2-31.7 52.9-22.4 100.4-54.4 141.2-95.2 40.8-40.8 72.8-88.3 95.2-141.2 15.3-36 25.5-73.6 30.8-112.1H862c-25.9 149.1-145.2 266.4-295.2 289.3z" p-id="16304"></path><path d="M344.6 519.5h140.2L324.5 773.1l336.9-273.6H521.2l160.3-253.6z" p-id="16305"></path></svg>