<?xml version="1.0" standalone="no"?><!DOCTYPE svg PUBLIC "-//W3C//DTD SVG 1.1//EN" "http://www.w3.org/Graphics/SVG/1.1/DTD/svg11.dtd"><svg t="1733231625900" class="icon" viewBox="0 0 1024 1024" version="1.1" xmlns="http://www.w3.org/2000/svg" p-id="6160" xmlns:xlink="http://www.w3.org/1999/xlink" width="200" height="200"><path d="M0 0h489.7792C406.2208 5.8368 323.1744 28.6208 251.136 71.936 141.056 137.4208 55.9616 244.992 21.248 368.64 8.5504 407.7056 4.1472 448.7168 0 489.4208V0zM534.5792 0H1024v484.4032c-1.8944-25.088-5.0688-50.1248-10.1888-74.752-11.5712-46.4384-25.8048-92.672-48.5376-134.9632-43.264-82.432-109.6192-152.6272-189.2352-200.8576C703.3856 29.3888 619.2128 5.9904 534.5792 0zM0 533.9648c4.096 42.5472 9.0112 85.3504 22.6816 126.0544 34.9184 120.5248 118.1696 225.2288 225.1776 290.048 72.6528 44.544 156.8768 67.9936 241.5616 73.9328H0v-490.0352zM912.5376 830.464c66.1504-82.0224 104.6528-185.0368 111.4624-289.9968V1024h-484.096c144.0768-8.2432 283.4944-79.8208 372.6336-193.536z" fill="#FFFFFF" p-id="6161"></path><path d="M489.7792 0h44.8c84.6336 5.9904 168.8064 29.3888 241.4592 73.8304 79.616 48.2304 145.9712 118.4256 189.2352 200.8576 22.7328 42.2912 36.9664 88.5248 48.5376 134.9632-116.0704-53.9648-234.752-103.168-357.632-139.6224-23.1936-6.9632-47.0016-11.7248-70.8608-15.616-58.368-14.4896-121.4976-12.8512-177.152 11.1616-83.968 33.2288-148.3264 111.8208-164.352 200.704-9.6768 55.2448-3.2768 113.664 21.1968 164.4032 15.616 36.5056 43.1104 65.792 70.912 93.44C387.0208 825.7536 445.44 923.5456 498.7392 1024h-9.3184c-84.6848-5.9392-168.9088-29.3888-241.5616-73.9328-107.008-64.8192-190.2592-169.5232-225.1776-290.048C9.0112 619.3152 4.096 576.512 0 533.9648v-44.544C4.1472 448.7168 8.5504 407.7056 21.248 368.64c34.7136-123.648 119.808-231.2192 229.888-296.704C323.1744 28.6208 406.2208 5.8368 489.7792 0z" fill="#5BC1ED" p-id="6162"></path><path d="M408.1664 265.5744c55.6544-24.0128 118.784-25.6512 177.152-11.1616 26.6752 11.5712 54.1184 22.3744 77.9776 39.3216 46.0288 33.1776 83.1488 79.5648 101.376 133.5808 20.7872 59.8528 19.8144 127.5392-3.6352 186.4704-35.1232 92.3136-124.8768 161.792-223.5392 170.5984-72.0896 8.5504-145.152-15.5648-201.5744-60.2624-27.8016-27.648-55.296-56.9344-70.912-93.44-24.4736-50.7392-30.8736-109.1584-21.1968-164.4032 16.0256-88.8832 80.384-167.4752 164.352-200.704m44.9536-0.9216C396.6464 277.504 345.1904 309.76 308.8896 354.9184c-46.848 57.344-66.1504 135.7312-52.224 208.384 11.7248 64.9216 50.176 123.7504 103.68 162.1504 65.7408 47.2576 154.368 60.5696 231.0144 34.0992 60.16-19.456 110.9504-63.0784 142.4384-117.5552 35.8912-64.512 43.4176-144.7424 17.2032-214.0672-24.7296-69.888-82.0224-127.488-151.6032-152.8832-46.336-17.8688-97.8944-20.6336-146.2784-10.3936z" fill="#474341" p-id="6163"></path><path d="M460.3392 302.08c51.9168-9.984 107.4176-4.4544 154.112 21.3504 94.976 47.872 146.2784 169.5232 108.544 270.0288-39.0144-8.5504-78.3872-15.9744-118.3232-18.4832-28.5696-2.7136-57.3952-1.0752-85.8624-4.608l5.5808-6.912c5.632-2.7648 11.8784-3.9936 18.176-3.84 47.9232-0.1536 95.6928 5.2736 142.8992 13.1584 1.8944-17.2544 3.584-34.5088 4.7104-51.8144-9.728-1.0752-19.456-2.2528-29.1328-3.584 9.1136-3.4304 18.5856-5.5808 28.0576-7.8336-7.5776-38.0416-22.9376-74.8032-48.4864-104.2944-10.5472 7.8848-22.016 14.6944-34.7136 18.5856 8.3456-9.4208 18.0736-17.4592 27.136-26.112-32.3584-30.8224-75.1616-49.2032-119.7056-52.1728-1.024 12.9536-1.792 26.112-6.4 38.3488-3.4304-12.4416-3.9424-25.3952-5.0688-38.1952-38.6048 2.304-74.9056 17.8176-106.6496 39.3216 5.888 8.9088 11.7248 17.8688 16.9472 27.2384-9.1136-5.9904-17.7664-12.544-26.4192-19.1488-31.5392 32.1536-52.8896 73.5232-58.4192 118.4768 11.0592 0.256 22.0672 0.4096 33.1264 0.5632l0.0512 7.5264h-34.048c0.1536 18.5344 1.6384 37.0688 4.4032 55.3984 37.4784-6.6048 75.3664-10.5984 113.2032-14.2336-10.496-28.3136-24.4736-55.4496-32.4608-84.5824-3.9936-10.0864 4.2496-19.5584 13.5168-22.3232 13.3632-0.6656 19.3536 12.9024 25.344 22.4768 16.4864 31.232 32.8192 62.6176 49.5616 93.7472 7.8848 15.5648 18.2272 30.3616 21.248 47.9232 10.8032 2.2528 23.9104 1.4336 31.2832 11.2128 24.8832 25.7536 7.2704 75.5712-27.8016 80.896-25.6512 5.8368-52.3264-14.5408-56.1664-39.936-2.1504-12.0832 2.4576-23.8592 3.6352-35.7376-5.4272-21.0944-15.6672-40.6016-23.1424-61.0304-51.456 3.7376-102.5536 10.9056-153.344 19.7632-19.5072-51.0464-14.08-108.5952 6.0416-158.6176C329.2672 368.384 390.912 318.7712 460.3392 302.08m-30.6688 23.552c-39.7824 15.36-72.7552 44.288-97.792 78.336-33.4336 51.1488-45.1584 116.6336-28.5696 175.7696 4.7616-0.6144 14.2336-1.8944 18.9952-2.5088-10.9568-51.6096-1.4848-107.2128 26.6752-151.9104 20.3776-30.208 48.5376-55.6544 81.5616-71.2192 53.9136-22.784 118.528-20.7872 169.8304 7.936 36.2496 19.3536 62.3616 53.4016 80.64 89.4464 16.2816 38.656 19.8656 82.176 12.4928 123.3408 7.168 1.792 14.336 3.5328 21.504 5.3248 27.9552-91.648-17.8176-196.9664-101.1712-242.6368-55.1936-31.9488-125.2864-35.9424-184.1664-11.8784m-10.1376 138.5472c1.1264 10.5472 3.7888 20.8896 7.68 30.7712 23.552 59.0336 47.0528 118.1184 69.7344 177.5616 10.5984 0.256 24.0128 4.2496 31.0272-6.4512 10.0864-9.472 0.3072-22.784-4.0448-32.5632-27.392-49.92-54.1696-100.1984-80.7936-150.528-5.5808-8.7552-10.496-22.9376-23.6032-18.7904m109.5168 163.2768c5.5296 9.7792 15.2064 20.224 11.4688 32.4608-2.7648 17.92-23.1424 25.9072-39.3216 22.7328-14.1312-7.0144-17.2032-24.2176-25.088-36.608 1.4336 13.6704-1.9968 30.208 8.8064 40.96 16.5376 22.7328 55.2448 17.7664 66.9696-7.1168 7.5264-16.9984 1.9968-35.9936-9.8304-49.408-3.2768-0.768-9.728-2.2528-13.0048-3.0208zM690.4832 657.5104c6.0928-13.8752 14.3872-27.3408 27.4432-35.6352-5.4272 14.1312-12.4416 29.4912-27.4432 35.6352zM655.2576 686.08c10.3424-9.0112 20.2752-19.1488 33.8944-23.1424-16.5376 26.4192-44.8512 42.3424-71.168 57.4976-0.6144-1.7408-1.792-5.2224-2.4064-6.9632 12.6976-9.8816 27.5968-16.64 39.68-27.392z" fill="#474341" p-id="6164"></path><path d="M585.3184 254.4128c23.8592 3.8912 47.6672 8.6528 70.8608 15.616 122.88 36.4544 241.5616 85.6576 357.632 139.6224 5.12 24.6272 8.2944 49.664 10.1888 74.752v56.064c-6.8096 104.96-45.312 207.9744-111.4624 289.9968-89.1392 113.7152-228.5568 185.2928-372.6336 193.536h-41.1648c-53.2992-100.4544-111.7184-198.2464-162.816-299.8784 56.4224 44.6976 129.4848 68.8128 201.5744 60.2624 98.6624-8.8064 188.416-78.2848 223.5392-170.5984 23.4496-58.9312 24.4224-126.6176 3.6352-186.4704-18.2272-54.016-55.3472-100.4032-101.376-133.5808-23.8592-16.9472-51.3024-27.7504-77.9776-39.3216z" fill="#2399BC" p-id="6165"></path><path d="M453.12 264.6528c48.384-10.24 99.9424-7.4752 146.2784 10.3936 69.5808 25.3952 126.8736 82.9952 151.6032 152.8832 26.2144 69.3248 18.688 149.5552-17.2032 214.0672-31.488 54.4768-82.2784 98.0992-142.4384 117.5552-76.6464 26.4704-165.2736 13.1584-231.0144-34.0992-53.504-38.4-91.9552-97.2288-103.68-162.1504-13.9264-72.6528 5.376-151.04 52.224-208.384C345.1904 309.76 396.6464 277.504 453.12 264.6528M460.3392 302.08c-69.4272 16.6912-131.072 66.304-158.5664 132.5568-20.1216 50.0224-25.5488 107.5712-6.0416 158.6176 50.7904-8.8576 101.888-16.0256 153.344-19.7632 7.4752 20.4288 17.7152 39.936 23.1424 61.0304-1.1776 11.8784-5.7856 23.6544-3.6352 35.7376 3.84 25.3952 30.5152 45.7728 56.1664 39.936 35.072-5.3248 52.6848-55.1424 27.8016-80.896-7.3728-9.7792-20.48-8.96-31.2832-11.2128-3.0208-17.5616-13.3632-32.3584-21.248-47.9232 8.0896-2.2528 16.2304-4.5056 24.3712-6.7072l-5.5808 6.912c28.4672 3.5328 57.2928 1.8944 85.8624 4.608 39.936 2.5088 79.3088 9.9328 118.3232 18.4832 37.7344-100.5056-13.568-222.1568-108.544-270.0288-46.6944-25.8048-102.1952-31.3344-154.112-21.3504m230.144 355.4304c15.0016-6.144 22.016-21.504 27.4432-35.6352-13.056 8.2944-21.3504 21.76-27.4432 35.6352m-35.2256 28.5696c-12.0832 10.752-26.9824 17.5104-39.68 27.392 0.6144 1.7408 1.792 5.2224 2.4064 6.9632 26.3168-15.1552 54.6304-31.0784 71.168-57.4976-13.6192 3.9936-23.552 14.1312-33.8944 23.1424z" fill="#DFDEDE" p-id="6166"></path><path d="M429.6704 325.632c58.88-24.064 128.9728-20.0704 184.1664 11.8784 83.3536 45.6704 129.1264 150.9888 101.1712 242.6368-7.168-1.792-14.336-3.5328-21.504-5.3248 7.3728-41.1648 3.7888-84.6848-12.4928-123.3408-18.2784-36.0448-44.3904-70.0928-80.64-89.4464-51.3024-28.7232-115.9168-30.72-169.8304-7.936-33.024 15.5648-61.184 41.0112-81.5616 71.2192-28.16 44.6976-37.632 100.3008-26.6752 151.9104-4.7616 0.6144-14.2336 1.8944-18.9952 2.5088-16.5888-59.136-4.864-124.6208 28.5696-175.7696 25.0368-34.048 58.0096-62.976 97.792-78.336z" fill="#FDFBF8" p-id="6167"></path><path d="M395.2128 385.024c31.744-21.504 68.0448-37.0176 106.6496-39.3216 1.1264 12.8 1.6384 25.7536 5.0688 38.1952 4.608-12.2368 5.376-25.3952 6.4-38.3488 44.544 2.9696 87.3472 21.3504 119.7056 52.1728-9.0624 8.6528-18.7904 16.6912-27.136 26.112 12.6976-3.8912 24.1664-10.7008 34.7136-18.5856 25.5488 29.4912 40.9088 66.2528 48.4864 104.2944-9.472 2.2528-18.944 4.4032-28.0576 7.8336 9.6768 1.3312 19.4048 2.5088 29.1328 3.584-1.1264 17.3056-2.816 34.56-4.7104 51.8144-47.2064-7.8848-94.976-13.312-142.8992-13.1584-6.2976-0.1536-12.544 1.0752-18.176 3.84-8.1408 2.2016-16.2816 4.4544-24.3712 6.7072-16.7424-31.1296-33.0752-62.5152-49.5616-93.7472-5.9904-9.5744-11.9808-23.1424-25.344-22.4768-9.2672 2.7648-17.5104 12.2368-13.5168 22.3232 7.9872 29.1328 21.9648 56.2688 32.4608 84.5824-37.8368 3.6352-75.7248 7.6288-113.2032 14.2336-2.7648-18.3296-4.2496-36.864-4.4032-55.3984h34.048l-0.0512-7.5264c-11.0592-0.1536-22.0672-0.3072-33.1264-0.5632 5.5296-44.9536 26.88-86.3232 58.4192-118.4768 8.6528 6.6048 17.3056 13.1584 26.4192 19.1488-5.2224-9.3696-11.0592-18.3296-16.9472-27.2384zM529.0496 627.456c3.2768 0.768 9.728 2.2528 13.0048 3.0208 11.8272 13.4144 17.3568 32.4096 9.8304 49.408-11.7248 24.8832-50.432 29.8496-66.9696 7.1168-10.8032-10.752-7.3728-27.2896-8.8064-40.96 7.8848 12.3904 10.9568 29.5936 25.088 36.608 16.1792 3.1744 36.5568-4.8128 39.3216-22.7328 3.7376-12.2368-5.9392-22.6816-11.4688-32.4608z" fill="#FDFBF8" p-id="6168"></path><path d="M419.5328 464.1792c13.1072-4.1472 18.0224 10.0352 23.6032 18.7904 26.624 50.3296 53.4016 100.608 80.7936 150.528 4.352 9.7792 14.1312 23.0912 4.0448 32.5632-7.0144 10.7008-20.4288 6.7072-31.0272 6.4512-22.6816-59.4432-46.1824-118.528-69.7344-177.5616-3.8912-9.8816-6.5536-20.224-7.68-30.7712z" fill="#E9495B" p-id="6169"></path></svg>