<?xml version="1.0" standalone="no"?><!DOCTYPE svg PUBLIC "-//W3C//DTD SVG 1.1//EN" "http://www.w3.org/Graphics/SVG/1.1/DTD/svg11.dtd"><svg t="1735994251883" class="icon" viewBox="0 0 1024 1024" version="1.1" xmlns="http://www.w3.org/2000/svg" p-id="5994" xmlns:xlink="http://www.w3.org/1999/xlink" width="200" height="200"><path d="M512.015059 0a120.470588 120.470588 0 1 0 0 240.956235A120.470588 120.470588 0 0 0 512 0zM512 176.685176a56.214588 56.214588 0 1 1 0-112.414117 56.214588 56.214588 0 0 1 0 112.414117z" fill="#4CB673" p-id="5995"></path><path d="M512 783.058824c-66.529882 0-120.470588 53.925647-120.470588 120.470588s53.940706 120.470588 120.470588 120.470588 120.470588-53.925647 120.470588-120.470588-53.940706-120.470588-120.470588-120.470588z m0 176.685176a56.214588 56.214588 0 1 1 0-112.414118 56.214588 56.214588 0 0 1 0 112.414118z" fill="#E0582F" p-id="5996"></path><path d="M481.882353 276.901647h60.235294v90.352941H481.882353zM481.882353 402.386824h60.235294v90.352941H481.882353zM481.882353 527.887059h60.235294v90.352941H481.882353zM481.882353 653.372235h60.235294v90.352941H481.882353z" fill="#ADADAD" p-id="5997"></path></svg>