<?xml version="1.0" standalone="no"?><!DOCTYPE svg PUBLIC "-//W3C//DTD SVG 1.1//EN" "http://www.w3.org/Graphics/SVG/1.1/DTD/svg11.dtd"><svg t="1729840540064" class="icon" viewBox="0 0 1024 1024" version="1.1" xmlns="http://www.w3.org/2000/svg" p-id="25615" xmlns:xlink="http://www.w3.org/1999/xlink" width="200" height="200"><path d="M512 512m-414 0a414 414 0 1 0 828 0 414 414 0 1 0-828 0Z" fill="#F0C48A" p-id="25616"></path><path d="M125 203h228.2v38.4H125z" fill="#FFFFFF" p-id="25617"></path><path d="M40.8 251.4h84.2V193.2H40.8c-16 0-29 13-29 29 0 16.2 13 29.2 29 29.2zM353.4 251.4h84.2c16 0 29-13 29-29s-13-29-29-29h-84.2v58z" fill="#7BABF1" p-id="25618"></path><path d="M291 199.4h61.2v45.6h-61.2z" fill="#D3E6F8" p-id="25619"></path><path d="M239.2 830.8c-22.2 0-40-18-40-40v-179.8c0-22.2 18-40 40-40 22.2 0 40 18 40 40v179.8c0 22.2-17.8 40-40 40z" fill="#7BABF1" p-id="25620"></path><path d="M239.2 842.6c-28.6 0-51.8-23.2-51.8-51.8v-179.8c0-28.6 23.2-51.8 51.8-51.8s51.8 23.2 51.8 51.8v179.8c0 28.6-23.2 51.8-51.8 51.8z m0-260c-15.6 0-28.4 12.8-28.4 28.4v179.8c0 15.6 12.8 28.4 28.4 28.4s28.4-12.8 28.4-28.4v-179.8c0-15.6-12.8-28.4-28.4-28.4z" fill="#4C4372" p-id="25621"></path><path d="M258.44 241.44v360h-38.4v-360z" fill="#FFFFFF" p-id="25622"></path><path d="M258.4 613.2H220c-6.4 0-11.8-5.2-11.8-11.8v-360c0-6.4 5.2-11.8 11.8-11.8h38.4c6.4 0 11.8 5.2 11.8 11.8v360c0 6.6-5.4 11.8-11.8 11.8z m-26.6-23.4h15V253.2h-15v336.6z" fill="#4C4372" p-id="25623"></path><path d="M353.4 253.2H125c-6.4 0-11.8-5.2-11.8-11.8v-38.4c0-6.4 5.2-11.8 11.8-11.8h228.2c6.4 0 11.8 5.2 11.8 11.8v38.4c0 6.6-5.2 11.8-11.6 11.8zM136.8 229.8h204.8v-15H136.8v15z" fill="#4C4372" p-id="25624"></path><path d="M125 263H40.8C18.4 263 0 244.8 0 222.2s18.4-40.8 40.8-40.8h84.2c6.4 0 11.8 5.2 11.8 11.8v58.2c0 6.4-5.2 11.6-11.8 11.6z m-84.2-58.2c-9.6 0-17.4 7.8-17.4 17.4s7.8 17.4 17.4 17.4h72.6v-34.8H40.8zM437.6 263h-84.2c-6.4 0-11.8-5.2-11.8-11.8v-58c0-6.4 5.2-11.8 11.8-11.8h84.2c22.6 0 40.8 18.4 40.8 40.8s-18.4 40.8-40.8 40.8z m-72.6-23.4h72.6c9.6 0 17.4-7.8 17.4-17.4s-7.8-17.4-17.4-17.4h-72.6v34.8z" fill="#4C4372" p-id="25625"></path><path d="M302.6 702.6v-93.2c0-35-28.4-63.4-63.4-63.4s-63.4 28.4-63.4 63.4v93.2h126.8z" fill="#D3E6F8" p-id="25626"></path><path d="M180.96336 470.250071a82.4 82.4 0 1 0 116.529163-116.533231 82.4 82.4 0 1 0-116.529163 116.533231Z" fill="#FD919E" p-id="25627"></path><path d="M205.287408 445.925173a48 48 0 1 0 67.881067-67.883436 48 48 0 1 0-67.881067 67.883436Z" fill="#FFFFFF" p-id="25628"></path><path d="M239.2 506c-52 0-94.2-42.2-94.2-94.2s42.2-94.2 94.2-94.2 94.2 42.2 94.2 94.2-42.2 94.2-94.2 94.2z m0-164.8c-39 0-70.6 31.8-70.6 70.6s31.8 70.6 70.6 70.6 70.6-31.8 70.6-70.6-31.6-70.6-70.6-70.6z" fill="#4C4372" p-id="25629"></path><path d="M239.2 471.6c-32.8 0-59.6-26.8-59.6-59.6s26.8-59.6 59.6-59.6 59.6 26.8 59.6 59.6-26.8 59.6-59.6 59.6z m0-95.8c-20 0-36.2 16.2-36.2 36.2 0 20 16.2 36.2 36.2 36.2s36.2-16.2 36.2-36.2c0-20-16.2-36.2-36.2-36.2z" fill="#4C4372" p-id="25630"></path><path d="M255.6 700.8h47.2v-101.4c0-26-21.2-47.2-47.2-47.2v148.6z" fill="#A4CFF2" p-id="25631"></path><path d="M302.6 714.4H175.8c-6.4 0-11.8-5.2-11.8-11.8v-93.2c0-41.4 33.8-75.2 75.2-75.2s75.2 33.8 75.2 75.2v93.2c0 6.6-5.4 11.8-11.8 11.8z m-115.2-23.4h103.4v-81.4c0-28.6-23.2-51.8-51.8-51.8s-51.8 23.2-51.8 51.8v81.4z" fill="#4C4372" p-id="25632"></path><path d="M446.2 464.8h66.6c36.8 0 66.6 29.8 66.6 66.6S549.6 598 512.8 598h-66.6v-133.2z" fill="#FD919E" p-id="25633"></path><path d="M534.4 597.8V470c25.2 0 45.8 20.4 45.8 45.8V552c0 25.4-20.4 45.8-45.8 45.8z" fill="#E8677D" p-id="25634"></path><path d="M512.8 609.6h-66.6c-6.4 0-11.8-5.2-11.8-11.8v-133.2c0-6.4 5.2-11.8 11.8-11.8h66.6c43.2 0 78.2 35.2 78.2 78.2s-35 78.6-78.2 78.6zM458 586.2h54.8c30.2 0 54.8-24.6 54.8-54.8 0-30.2-24.6-54.8-54.8-54.8H458v109.6z" fill="#4C4372" p-id="25635"></path><path d="M446.2 586.2h-45.4c-6.4 0-11.8-5.2-11.8-11.8 0-6.4 5.2-11.8 11.8-11.8h45.4c6.4 0 11.8 5.2 11.8 11.8 0 6.4-5.2 11.8-11.8 11.8zM446.2 499.8h-45.4c-6.4 0-11.8-5.2-11.8-11.8 0-6.4 5.2-11.8 11.8-11.8h45.4c6.4 0 11.8 5.2 11.8 11.8 0 6.6-5.2 11.8-11.8 11.8zM495 609.6c-6.4 0-11.8-5.2-11.8-11.8v-124.2c0-6.4 5.2-11.8 11.8-11.8s11.8 5.2 11.8 11.8v124.2c0 6.6-5.2 11.8-11.8 11.8z" fill="#4C4372" p-id="25636"></path><path d="M967.4 771.6H633V337.8c0-14.6 12-26.6 26.6-26.6h281.2c14.6 0 26.6 12 26.6 26.6v433.8z" fill="#A4CFF2" p-id="25637"></path><path d="M967.4 777h-52.4V317.2h31.6c11.4 0 20.6 9.2 20.6 20.6v439.2z" fill="#7BABF1" p-id="25638"></path><path d="M751.4 311.2h-58v-40.8c0-16 13-29 29-29s29 13 29 29v40.8zM906.8 311.2h-58v-40.8c0-16 13-29 29-29s29 13 29 29v40.8z" fill="#D3E6F8" p-id="25639"></path><path d="M755.4 305.2h-30.4v-63.8c16.8 0 30.4 13.6 30.4 30.4v33.4zM908.4 305.2H878v-63.8c16.8 0 30.4 13.6 30.4 30.4v33.4z" fill="#A4CFF2" p-id="25640"></path><path d="M982.6 830.8H617.6c-16.4 0-29.6-13.2-29.6-29.6 0-16.4 13.2-29.6 29.6-29.6h365c16.4 0 29.6 13.2 29.6 29.6 0 16.4-13.2 29.6-29.6 29.6z" fill="#7BABF1" p-id="25641"></path><path d="M681.4 365h237.6v118.2H681.4z" fill="#FFFFFF" p-id="25642"></path><path d="M725 433.2h50.2v50.2h-50.2z" fill="#FD919E" p-id="25643"></path><path d="M775 413.8h50.2v69.6h-50.2zM825.2 394.4h50.2v89h-50.2zM836.2 519.2l-101.4 101.6h50.8l-39 108.8 119-105.2h-54.8z" fill="#FD919E" p-id="25644"></path><path d="M746.6 741.2c-2.2 0-4.6-0.6-6.6-2-4.4-3-6.2-8.6-4.4-13.6l33.2-93.2h-34.2c-4.8 0-9-2.8-10.8-7.2-1.8-4.4-0.8-9.4 2.6-12.8l101.4-101.4c3.8-3.8 9.4-4.6 14-2 4.6 2.6 6.8 7.8 5.6 13l-22 90.6h39.8c4.8 0 9.2 3 11 7.6 1.8 4.6 0.4 9.8-3.2 13l-118.8 105.2c-2 1.8-4.8 2.8-7.6 2.8z m16.4-132.2h22.4c3.8 0 7.4 1.8 9.6 5 2.2 3.2 2.8 7.2 1.4 10.6l-23.6 65.8 61.6-54.4h-23.8c-3.6 0-7-1.6-9.2-4.4-2.2-2.8-3-6.6-2.2-10l15.6-64.6-51.8 52z" fill="#4C4372" p-id="25645"></path><path d="M967.4 783.4H633c-6.4 0-11.8-5.2-11.8-11.8V337.8c0-21.2 17.2-38.4 38.4-38.4h281.2c21.2 0 38.4 17.2 38.4 38.4v433.8c0 6.6-5.4 11.8-11.8 11.8z m-322.8-23.6h311v-422c0-8.2-6.6-14.8-14.8-14.8H659.6c-8.2 0-14.8 6.6-14.8 14.8v422z" fill="#4C4372" p-id="25646"></path><path d="M982.6 842.6H617.6c-22.8 0-41.4-18.6-41.4-41.4s18.6-41.4 41.4-41.4h365c22.8 0 41.4 18.6 41.4 41.4s-18.6 41.4-41.4 41.4z m-365-59.2c-9.8 0-17.8 8-17.8 17.8s8 17.8 17.8 17.8h365c9.8 0 17.8-8 17.8-17.8s-8-17.8-17.8-17.8H617.6z" fill="#4C4372" p-id="25647"></path><path d="M751.4 322.8h-58c-6.4 0-11.8-5.2-11.8-11.8v-40.8c0-22.4 18.2-40.8 40.8-40.8s40.8 18.2 40.8 40.8v40.8c0 6.6-5.2 11.8-11.8 11.8z m-46.2-23.4h34.6v-29c0-9.6-7.8-17.2-17.2-17.2-9.6 0-17.2 7.8-17.2 17.2v29zM906.8 322.8h-58c-6.4 0-11.8-5.2-11.8-11.8v-40.8c0-22.4 18.2-40.8 40.8-40.8s40.8 18.2 40.8 40.8v40.8c0 6.6-5.2 11.8-11.8 11.8z m-46.2-23.4h34.6v-29c0-9.6-7.8-17.2-17.2-17.2-9.6 0-17.2 7.8-17.2 17.2v29z" fill="#4C4372" p-id="25648"></path><path d="M633 731.4c-36 0-65.2-29.2-65.2-65.2v-135c0-6.4 5.2-11.8 11.8-11.8 6.4 0 11.8 5.2 11.8 11.8v135c0 23 18.8 41.8 41.8 41.8 6.4 0 11.8 5.2 11.8 11.8-0.4 6.4-5.6 11.6-12 11.6z" fill="#4C4372" p-id="25649"></path><path d="M875.4 362.8h44.8v116.6h-44.8z" fill="#D3E6F8" p-id="25650"></path><path d="M919 495H681.4c-6.4 0-11.8-5.2-11.8-11.8v-118.2c0-6.4 5.2-11.8 11.8-11.8h237.6c6.4 0 11.8 5.2 11.8 11.8v118.2c-0.2 6.6-5.4 11.8-11.8 11.8z m-226-23.4h214.2v-94.8H693v94.8z" fill="#4C4372" p-id="25651"></path><path d="M775 495h-50.2c-6.4 0-11.8-5.2-11.8-11.8v-50.2c0-6.4 5.2-11.8 11.8-11.8h50.2c6.4 0 11.8 5.2 11.8 11.8v50.2c0 6.6-5.2 11.8-11.8 11.8z m-38.4-23.4h26.6v-26.6h-26.6v26.6z" fill="#4C4372" p-id="25652"></path><path d="M825.2 495h-50.2c-6.4 0-11.8-5.2-11.8-11.8v-69.6c0-6.4 5.2-11.8 11.8-11.8h50.2c6.4 0 11.8 5.2 11.8 11.8v69.6c0 6.6-5.4 11.8-11.8 11.8z m-38.4-23.4h26.6v-46h-26.6v46z" fill="#4C4372" p-id="25653"></path><path d="M875.4 495h-50.2c-6.4 0-11.8-5.2-11.8-11.8v-89c0-6.4 5.2-11.8 11.8-11.8h50.2c6.4 0 11.8 5.2 11.8 11.8v89c-0.2 6.6-5.4 11.8-11.8 11.8z m-38.4-23.4h26.6v-65.4h-26.6v65.4z" fill="#4C4372" p-id="25654"></path></svg>