<?xml version="1.0" standalone="no"?><!DOCTYPE svg PUBLIC "-//W3C//DTD SVG 1.1//EN" "http://www.w3.org/Graphics/SVG/1.1/DTD/svg11.dtd"><svg t="1727325765910" class="icon" viewBox="0 0 1024 1024" version="1.1" xmlns="http://www.w3.org/2000/svg" p-id="4312" xmlns:xlink="http://www.w3.org/1999/xlink" width="200" height="200"><path d="M704 128H320a21.333333 21.333333 0 0 0-21.333333 21.333333v170.666667a21.333333 21.333333 0 0 0 21.333333 21.333333h384a21.333333 21.333333 0 0 0 21.333333-21.333333V149.333333a21.333333 21.333333 0 0 0-21.333333-21.333333z m-21.333333 170.666667H341.333333V170.666667h341.333334z" fill="#323333" p-id="4313"></path><path d="M853.333333 438.186667V341.333333a21.333333 21.333333 0 0 0 21.333334-21.333333V149.333333a21.333333 21.333333 0 0 0-21.333334-21.333333V106.666667a64 64 0 0 0-64-64H234.666667a64 64 0 0 0-64 64v21.333333a21.333333 21.333333 0 0 0-20.053334 21.333333v170.666667A21.333333 21.333333 0 0 0 170.666667 341.333333v597.333334H106.666667a21.333333 21.333333 0 0 0 0 42.666666h577.066666a298.666667 298.666667 0 0 0 170.666667-543.146666z m-10.026666 162.56A21.333333 21.333333 0 0 1 832 640H533.333333a21.333333 21.333333 0 0 1 0-42.666667h227.413334l-70.4-46.293333a21.333333 21.333333 0 0 1-6.186667-29.44 21.333333 21.333333 0 0 1 29.653333-6.186667zM213.333333 106.666667a21.333333 21.333333 0 0 1 21.333334-21.333334h554.666666a21.333333 21.333333 0 0 1 21.333334 21.333334v306.773333A294.826667 294.826667 0 0 0 682.666667 384a298.666667 298.666667 0 0 0-298.666667 298.666667 294.826667 294.826667 0 0 0 29.226667 128H213.333333z m0 832v-85.333334h219.946667a23.04 23.04 0 0 0 4.053333 0 304.64 304.64 0 0 0 92.373334 85.333334z m618.666667-170.666667H604.8l70.4 46.08a21.333333 21.333333 0 0 1 6.186667 29.653333 21.333333 21.333333 0 0 1-17.92 9.6 20.053333 20.053333 0 0 1-11.733334-3.626666l-129.92-85.333334A21.333333 21.333333 0 0 1 533.333333 725.333333h298.666667a21.333333 21.333333 0 1 1 0 42.666667z" fill="#323333" p-id="4314"></path><path d="M320.426667 447.786667m-21.333334 0a21.333333 21.333333 0 1 0 42.666667 0 21.333333 21.333333 0 1 0-42.666667 0Z" fill="#323333" p-id="4315"></path><path d="M405.12 447.786667m-21.333333 0a21.333333 21.333333 0 1 0 42.666666 0 21.333333 21.333333 0 1 0-42.666666 0Z" fill="#323333" p-id="4316"></path></svg>