<?xml version="1.0" standalone="no"?><!DOCTYPE svg PUBLIC "-//W3C//DTD SVG 1.1//EN" "http://www.w3.org/Graphics/SVG/1.1/DTD/svg11.dtd"><svg t="1729842690615" class="icon" viewBox="0 0 1031 1024" version="1.1" xmlns="http://www.w3.org/2000/svg" p-id="29739" xmlns:xlink="http://www.w3.org/1999/xlink" width="201.3671875" height="200"><path d="M303.004551 162.972203l718.188474 0 0 359.094238-718.188474 0 0-359.094238Z" fill="#FFCBE0" p-id="29740"></path><path d="M128.230313 490.999322l718.188475 0 0 359.094237-718.188475 0 0-359.094237Z" fill="#FFCBE0" p-id="29741"></path><path d="M250.242517 195.948475h-69.423729a17.355932 17.355932 0 1 1 0-34.711865h69.423729a17.355932 17.355932 0 0 1 0 34.711865zM727.704212 523.975593H718.852686a17.355932 17.355932 0 0 1 0-34.711864h9.372203a145.789831 145.789831 0 0 0 100.490848-40.265763 17.355932 17.355932 0 0 1 23.951186 25.166102 180.328136 180.328136 0 0 1-124.962711 49.811525z m-76.192543 0h-133.467118a17.355932 17.355932 0 0 1 0-34.711864h133.467118a17.355932 17.355932 0 0 1 0 34.711864z m-200.287457 0h-133.467119a17.355932 17.355932 0 0 1 0-34.711864h133.467119a17.355932 17.355932 0 0 1 0 34.711864z m426.955932-99.275932a17.355932 17.355932 0 0 1-15.967458-24.298305 145.789831 145.789831 0 0 0 0-115.937627 17.355932 17.355932 0 1 1 31.761356-13.884746 180.328136 180.328136 0 0 1 0 143.533559 17.355932 17.355932 0 0 1-15.793898 10.587119zM840.344212 240.72678a17.355932 17.355932 0 0 1-11.975594-4.686102 145.789831 145.789831 0 0 0-100.317288-39.918644h-9.719322a17.355932 17.355932 0 0 1 0-34.711865h9.719322a180.328136 180.328136 0 0 1 124.094915 49.464407 17.355932 17.355932 0 0 1-11.802033 29.852204z m-189.179661-44.778305h-133.467119a17.355932 17.355932 0 0 1 0-34.711865h133.467119a17.355932 17.355932 0 0 1 0 34.711865z m-200.287458 0h-133.467119a17.355932 17.355932 0 0 1 0-34.711865h133.467119a17.355932 17.355932 0 0 1 0 34.711865zM250.242517 523.975593h-69.423729a17.355932 17.355932 0 1 1 0-34.711864h69.423729a17.355932 17.355932 0 0 1 0 34.711864zM727.704212 851.829153h-69.423729a17.355932 17.355932 0 0 1 0-34.711865h69.423729a17.355932 17.355932 0 0 1 0 34.711865zM591.460144 851.829153H458.513703a17.355932 17.355932 0 1 1 0-34.711865h133.467119a17.355932 17.355932 0 0 1 0 34.711865zM391.172686 851.829153h-133.467119a17.355932 17.355932 0 0 1 0-34.711865h133.467119a17.355932 17.355932 0 0 1 0 34.711865zM191.058788 851.829153H180.818788a180.328136 180.328136 0 0 1-124.094915-49.464407 17.355932 17.355932 0 0 1 23.777627-25.339661A145.789831 145.789831 0 0 0 180.818788 817.117288h9.719322a17.355932 17.355932 0 0 1 0 34.711865zM30.863534 752.900339a17.355932 17.355932 0 0 1-15.967458-10.413559 180.328136 180.328136 0 0 1 0-143.53356 17.355932 17.355932 0 1 1 31.761356 13.711187 145.789831 145.789831 0 0 0 0 115.937627 17.355932 17.355932 0 0 1-15.967458 24.298305z" fill="#333333" p-id="29742"></path><path d="M68.699466 568.927458A17.355932 17.355932 0 0 1 56.897432 538.033898 180.328136 180.328136 0 0 1 180.818788 489.263729h9.372203a17.355932 17.355932 0 1 1 0 34.711864H180.818788a145.789831 145.789831 0 0 0-100.143729 40.092204 17.355932 17.355932 0 0 1-11.975593 4.859661z" fill="#333333" p-id="29743"></path><path d="M159.297432 189.52678m-131.210848 0a131.210847 131.210847 0 1 0 262.421695 0 131.210847 131.210847 0 1 0-262.421695 0Z" fill="#D6226D" p-id="29744"></path><path d="M159.297432 338.093559a148.56678 148.56678 0 1 1 148.56678-148.566779 148.740339 148.740339 0 0 1-148.56678 148.566779z m0-262.248135a113.854915 113.854915 0 1 0 113.854915 113.854915 113.854915 113.854915 0 0 0-113.854915-113.854915z" fill="#333333" p-id="29745"></path><path d="M760.506923 834.47322m-131.210847 0a131.210847 131.210847 0 1 0 262.421695 0 131.210847 131.210847 0 1 0-262.421695 0Z" fill="#D6226D" p-id="29746"></path><path d="M760.506923 982.866441a148.56678 148.56678 0 1 1 149.261017-148.393221 148.740339 148.740339 0 0 1-149.261017 148.393221z m0-262.248136a113.854915 113.854915 0 1 0 114.549153 113.854915 113.854915 113.854915 0 0 0-114.549153-113.854915z" fill="#333333" p-id="29747"></path></svg>