<?xml version="1.0" standalone="no"?><!DOCTYPE svg PUBLIC "-//W3C//DTD SVG 1.1//EN" "http://www.w3.org/Graphics/SVG/1.1/DTD/svg11.dtd"><svg t="1727326061725" class="icon" viewBox="0 0 1024 1024" version="1.1" xmlns="http://www.w3.org/2000/svg" p-id="8612" xmlns:xlink="http://www.w3.org/1999/xlink" width="200" height="200"><path d="M789.33232 0.00128c6.015053 0 11.774146 2.463612 15.997481 6.782931a23.228342 23.228342 0 0 1 6.622956 16.31743l-0.031995 62.198204H847.947088c19.100992 0 37.402109 7.710786 50.903983 21.436624 13.501873 13.725838 21.084679 32.31491 21.084679 51.703857v157.095257l46.200724 13.917808c15.293591 4.607274 25.787938 18.877027 25.787938 35.066477v270.837343c0 13.117934-6.942906 25.276019-18.173138 31.770996l-53.815524 31.131097v179.331755c0 19.388946-7.582806 37.978018-21.084679 51.703857-13.501873 13.693843-31.802991 21.436624-50.903983 21.436624l-36.026326-0.031995 0.031995 36.57024C811.952757 1011.68194 799.954647 1023.840025 775.958427 1023.840025h-107.982993c-23.996221 0-35.994331-12.19008-35.994331-36.57024l-0.031995-36.57024H392.018897v36.57024c0 24.38016-11.99811 36.57024-35.994331 36.57024H248.041573c-23.996221 0-35.994331-12.19008-35.99433-36.57024v-36.57024H176.052912c-19.100992 0-37.402109-7.678791-50.903983-21.436624a73.71639 73.71639 0 0 1-21.084679-51.671862v-179.29976l-53.815524-31.163092c-9.982428-5.791088-16.57339-15.99748-17.917178-27.451676L32.075588 635.357211v-270.837343c0-16.18945 10.494347-30.459203 25.787938-35.066477L104.06425 315.471593V158.440326c0-40.377641 32.218926-73.108485 71.988662-73.108486l35.962336-0.031995 0.031995-62.198204c0-6.111038 2.367627-11.99811 6.590961-16.31743A22.492457 22.492457 0 0 1 234.66768 0.00128c6.015053 0 11.774146 2.463612 16.029475 6.782931a23.228342 23.228342 0 0 1 6.622957 16.31743l-0.031995 62.198204h139.689999V23.101641c0-6.111038 2.367627-11.99811 6.622957-16.31743a22.492457 22.492457 0 0 1 15.99748-6.782931c6.015053 0 11.806141 2.463612 16.029476 6.782931a23.228342 23.228342 0 0 1 6.590962 16.31743v62.198204h139.530024V23.101641c0-6.111038 2.367627-11.99811 6.622956-16.31743a22.492457 22.492457 0 0 1 15.997481-6.782931c6.047048 0 11.806141 2.463612 16.029475 6.782931a23.228342 23.228342 0 0 1 6.622957 16.31743l-0.031995 62.198204h139.689999V23.101641c0-6.111038 2.367627-11.99811 6.622957-16.31743a22.492457 22.492457 0 0 1 15.99748-6.782931z m26.011903 277.620275h-4.287324a24.18819 24.18819 0 0 0-23.996221 24.38016v442.682277c0 6.462982 2.527602 12.670004 7.038891 17.277279 4.479295 4.543284 10.590332 7.102881 16.95733 7.102881h4.287324c6.398992 0 12.478035-2.559597 16.95733-7.134876a24.57213 24.57213 0 0 0 7.038891-17.245284V302.03371a24.18819 24.18819 0 0 0-23.996221-24.38016z m-602.401122 0H208.687772a24.18819 24.18819 0 0 0-23.996221 24.38016v442.682277c0 6.462982 2.527602 12.670004 7.038891 17.277279 4.479295 4.543284 10.558337 7.102881 16.95733 7.102881h4.287324c6.366997 0 12.478035-2.559597 16.95733-7.134876a24.57213 24.57213 0 0 0 7.038891-17.245284V302.03371a24.18819 24.18819 0 0 0-23.996221-24.38016zM583.988662 309.7125h-87.218263c-18.813037 0-28.859455 7.93475-33.338749 19.068997l-0.6399 1.727728-94.769074 184.162994a19.260966 19.260966 0 0 0 0.351945 17.917178 16.957329 16.957329 0 0 0 12.829979 8.798614l1.823713 0.095985h93.9692L425.389641 713.488905a18.429097 18.429097 0 0 0 7.99874 21.308644 16.029475 16.029475 0 0 0 20.124831-2.879546l1.151818-1.375783 209.471009-266.646004a18.941017 18.941017 0 0 0 2.367627-19.292961 17.117304 17.117304 0 0 0-13.821823-10.334372l-1.631743-0.06399h-104.623522l52.407746-97.424656a19.164982 19.164982 0 0 0-0.095985-18.045158 16.765359 16.765359 0 0 0-14.781672-9.022579z" fill="#333333" p-id="8613"></path></svg>