<?xml version="1.0" standalone="no"?><!DOCTYPE svg PUBLIC "-//W3C//DTD SVG 1.1//EN" "http://www.w3.org/Graphics/SVG/1.1/DTD/svg11.dtd"><svg t="1733232974200" class="icon" viewBox="0 0 1024 1024" version="1.1" xmlns="http://www.w3.org/2000/svg" p-id="17728" xmlns:xlink="http://www.w3.org/1999/xlink" width="200" height="200"><path d="M843.742925 169.538501V633.710415h67.121855V169.566906a100.696985 100.696985 0 0 0-100.66858-100.725391h-67.121855v67.121855h67.121855c18.520292 0 33.546725 15.054838 33.546725 33.603536zM323.584055 203.05682c27.808843 0 50.33429-22.525447 50.33429-50.305884V52.05395a50.362695 50.362695 0 1 0-100.696986 0v100.696986c0 27.780438 22.553852 50.277479 50.362696 50.277479z m251.699855-134.24371h-167.81884v67.121855h167.81884V68.81311z m83.90942 134.24371c27.808843 0 50.33429-22.525447 50.33429-50.305884V52.05395a50.362695 50.362695 0 1 0-100.66858 0v100.696986c0 27.780438 22.525447 50.277479 50.33429 50.277479zM138.949244 907.822096V169.566906c0-18.548697 15.054838-33.603536 33.57513-33.603536h67.121855V68.81311H172.524374A100.66858 100.66858 0 0 0 71.827389 169.538501V907.822096a100.66858 100.66858 0 0 0 100.696985 100.696985h201.365565v-67.121855H172.467563a33.546725 33.546725 0 0 1-33.518319-33.57513z m812.023898-55.95855c-5.254991-14.145867-13.350517-23.746877-30.620973-21.786908-2.556482 0.284054-7.072934-4.942532-8.464796-8.464796a1851.631505 1851.631505 0 0 1-23.406013-63.940455c-4.715289-13.57776-14.174272-22.497042-27.269141-26.104522-17.696536-4.914127-35.932775-7.896689-53.94177-11.703007a262.181431 262.181431 0 0 0-78.824862 0c-10.225928 1.562295-20.537072 2.840536-30.734595 4.800506-27.041898 5.226585-48.232294 17.014808-55.95855 46.35754-4.601668 17.412483-11.532574 34.313669-17.98059 51.214856-1.249836 3.266616-5.453828 8.152337-7.726257 7.839878-18.889561-2.38605-26.274954 9.17493-31.302702 24.144552-0.937377 3.465453-0.397675 6.646853 0 9.260146l19.599696 5.169775c-0.36927 27.354357-0.766945 54.538283-1.050998 81.693802-0.142027 14.628758-0.710134 29.314327 0.284053 43.886274 0.482891 6.732069 2.982562 17.18524 6.675259 19.798533 2.698509 3.635886 51.214856 3.493859 60.247759 0 4.175587-1.5907 6.220773-22.951527 9.657821-35.648721h177.78912c4.374425 12.015465-3.97675 26.814656 9.60101 35.648721 4.061966 2.840536 56.413036 3.010968 58.742275-1.022593 2.499671-1.5907 6.078746-11.163305 6.192368-17.355672 0.681729-34.569318 0.454486-69.167041 0.170432-103.764764-0.028405-7.58423-1.704321-15.16846-2.641698-22.639068l20.963152-5.766287a24.627443 24.627443 0 0 0 0-11.589385z m-247.495863 36.699719c-1.533889 4.175587-7.754662 8.180742-12.640383 9.288551-6.732069 1.5907-14.202678 1.846348-21.275611 1.846348 0 0.227243 0 0.113621 0 0-10.367955-1.079404-20.877936-1.363457-31.018648-3.493858-13.15168-2.726914-16.872781-12.583572-12.896032-30.166488 2.726914-12.072276 12.129087-12.583572 20.565478-9.799848a454.769742 454.769742 0 0 1 49.766183 19.883749c3.891534 1.789537 8.606823 9.458983 7.499013 12.441546z m-56.242603-52.862367c9.004498-25.167145 16.75916-48.459537 25.848873-71.183821 1.704321-4.374425 8.407985-8.237553 13.492544-9.430578 12.327924-2.954157 25.053524-5.908314 37.608691-5.823098 38.119987 0.284054 76.239974 1.647511 114.331556 3.380238 15.622946 0.681729 26.132927 8.663633 30.535757 24.911497 5.112964 18.889561 11.873439 37.353043 18.605508 58.145762-80.330345 17.327267-158.672316 16.929592-240.394524 0z m256.386738 84.64796c-10.02709 2.329239-20.451856 2.698509-28.916651 3.692696-9.629416-0.766945-17.469294-0.624918-24.883092-2.244023-9.288551-2.01678-12.214303-12.952842-4.061966-16.929592a390.68726 390.68726 0 0 1 55.333633-21.360827c7.555825-2.329239 12.754005 3.97675 13.009653 12.356329 0.340864 9.771442 3.209805 21.304017-10.481577 24.457011z m-489.424275-231.446837c0 24.258174 17.895374 43.886274 39.93793 43.886274 22.042556 0 39.909525-19.628101 39.909524-43.886274s-17.866969-43.91468-39.909524-43.91468-39.909525 19.656506-39.909525 43.91468z m66.752585 63.343943h-51.9818c-17.497699 0-33.262671 7.016123-44.482787 18.207833v113.252152H423.570906l8.407985 132.993875h47.720998l8.123931-132.993875h39.625471V772.612604a62.576998 62.576998 0 0 0-46.499567-20.36664z" fill="#444444" p-id="17729"></path><path d="M184.96592 257.055401m56.810711 0l482.891044 0q56.810711 0 56.810711 56.810711l0 227.242844q0 56.810711-56.810711 56.810711l-482.891044 0q-56.810711 0-56.810711-56.810711l0-227.242844q0-56.810711 56.810711-56.810711Z" fill="#FDEDEE" p-id="17730"></path><path d="M702.341065 469.868325a33.57513 33.57513 0 0 1 0 67.15026H266.034805a33.57513 33.57513 0 1 1 0-67.15026z m7.15815-154.070649a33.57513 33.57513 0 0 1 0 67.121855H273.192954a33.546725 33.546725 0 1 1 0-67.121855z" fill="#DE0A0A" p-id="17731"></path></svg>