<?xml version="1.0" standalone="no"?><!DOCTYPE svg PUBLIC "-//W3C//DTD SVG 1.1//EN" "http://www.w3.org/Graphics/SVG/1.1/DTD/svg11.dtd"><svg t="1727326659757" class="icon" viewBox="0 0 1024 1024" version="1.1" xmlns="http://www.w3.org/2000/svg" p-id="18094" xmlns:xlink="http://www.w3.org/1999/xlink" width="200" height="200"><path d="M295.008 90.016h68.992l52.992 52 68.992 96 70.016 130.016 131.008 18.016 139.008 43.008 78.016 60.992v52l-52 35.008-87.008 18.016h-226.016l-148 164.992-70.016 52-78.016 27.008-35.008-44 8-70.016 70.016-156 70.016-104.992-79.008-235.008 18.016-139.008z m156.992 296h68.992l35.008 26.016 16.992 35.008v60.992l-16.992 34.016-44 27.008h-68.992l-35.008-27.008-16.992-34.016V447.04l16.992-35.008 44-26.016z m87.008 260.992l26.016 287.008h-166.016l8.992-130.016 131.008-156.992z m-44-296h-52l-70.016 52-26.016 79.008 52 95.008 70.016 26.016h52l70.016-52 16.992-35.008v-78.016l-43.008-60.992-70.016-26.016z m0 87.008h-35.008l-16.992 16.992v44l26.016 16.992h35.008l26.016-34.016-35.008-44z" p-id="18095"></path></svg>